<svg width="154" height="154" viewBox="0 0 154 154" fill="none" xmlns="http://www.w3.org/2000/svg">
<circle cx="77" cy="77" r="77" fill="white"/>
<mask id="mask0" mask-type="alpha" maskUnits="userSpaceOnUse" x="0" y="0" width="154" height="154">
<circle cx="77" cy="77" r="77" fill="white"/>
</mask>
<g mask="url(#mask0)">
<path d="M105.892 96.1437C103.97 95.1828 102.048 95.8234 100.447 97.1047C94.0405 102.87 85.7123 106.394 76.7434 106.394C67.7746 106.394 59.7667 103.191 53.6807 97.7453C52.3995 96.464 50.4776 96.464 48.876 97.1047C26.7742 107.355 11.0788 129.136 9.47717 154.441H146.893C144.971 128.175 128.635 106.073 105.892 96.1437Z" fill="#030085"/>
<path d="M76.4234 99.9874C92.3449 99.9874 105.252 87.0805 105.252 71.159C105.252 55.2375 92.3449 42.3306 76.4234 42.3306C60.5019 42.3306 47.595 55.2375 47.595 71.159C47.595 87.0805 60.5019 99.9874 76.4234 99.9874Z" fill="#030085"/>
<path d="M102.049 123.692V131.379C102.049 131.7 102.049 132.02 102.369 132.34L107.494 137.145C108.135 137.786 108.775 137.786 109.416 137.145L114.541 132.34C114.861 132.02 114.861 131.7 114.861 131.379V123.692C114.861 123.051 114.221 122.41 113.58 122.41H103.33C102.689 122.41 102.049 123.051 102.049 123.692Z" fill="#2D9EF4"/>
</g>
</svg>
