<svg width="175" height="40" viewBox="0 0 175 40" fill="none" xmlns="http://www.w3.org/2000/svg">
<path d="M1.9727 40C1.9453 39.9909 1.91791 39.9726 1.88137 39.9635C1.24207 39.8447 0.94982 39.1598 1.32427 38.6301C1.68045 38.1186 2.0549 37.6163 2.42021 37.1049C4.58471 34.091 6.75833 31.0772 8.92282 28.0542C10.5941 25.7253 12.2746 23.3964 13.9459 21.0675C13.9916 21.0036 14.0281 20.9397 14.1012 20.8392C14.0007 20.8392 13.9459 20.8392 13.8911 20.8392C11.8636 20.8392 9.83611 20.8392 7.80861 20.8392C7.29717 20.8392 6.95926 20.5561 6.90446 20.0538C6.86793 19.7433 7.00492 19.4875 7.26064 19.2958C8.26526 18.5651 9.26987 17.8345 10.2745 17.1039C12.7769 15.2864 15.2793 13.469 17.7817 11.6515C20.3481 9.78843 22.9053 7.93446 25.4716 6.07135C28.1749 4.10778 30.8783 2.14421 33.5907 0.180642C34.093 -0.184674 34.7689 0.0253827 34.9333 0.61902C35.0063 0.883873 34.9607 1.13959 34.7871 1.36792C34.3305 1.99808 33.883 2.62825 33.4355 3.25842C30.9331 6.74718 28.4215 10.2268 25.9191 13.7156C24.677 15.4508 23.4258 17.1769 22.1838 18.9122C22.1381 18.9761 22.1016 19.04 22.0376 19.1314C22.129 19.1314 22.1838 19.1405 22.2386 19.1405C24.2843 19.1405 26.3301 19.1405 28.3759 19.1405C28.7594 19.1405 29.0791 19.378 29.1978 19.7341C29.3074 20.0812 29.1887 20.4556 28.8873 20.6748C28.5585 20.9214 28.2206 21.1589 27.8827 21.4055C25.8826 22.8576 23.8825 24.3097 21.8824 25.7618C19.4896 27.4971 17.0968 29.2415 14.7039 30.9767C11.2791 33.4609 7.86341 35.945 4.43858 38.4291C3.83581 38.8675 3.23304 39.2968 2.6394 39.7351C2.45675 39.8721 2.25582 39.9543 2.03663 40C2.00923 40 1.99097 40 1.9727 40ZM25.6999 20.8849C25.6908 20.8666 25.6817 20.8575 25.6817 20.8392C25.6269 20.8392 25.5721 20.8392 25.5173 20.8392C23.8186 20.8392 22.1107 20.8392 20.412 20.8392C20.0558 20.8392 19.7636 20.7022 19.6083 20.3734C19.453 20.0538 19.4896 19.7433 19.6996 19.4602C21.4623 17.0034 23.2249 14.5558 24.9967 12.099C26.7319 9.68797 28.4581 7.27689 30.1933 4.87494C30.2207 4.83841 30.239 4.79275 30.2664 4.75621C30.2572 4.74708 30.2481 4.73795 30.239 4.72882C23.6176 9.51445 17.0237 14.3092 10.4206 19.0948C10.4297 19.1131 10.4297 19.1222 10.4389 19.1405C10.4937 19.1405 10.5576 19.1405 10.6124 19.1405C12.3111 19.1405 14.019 19.1405 15.7177 19.1405C16.0739 19.1405 16.3661 19.2775 16.5214 19.6063C16.6766 19.9259 16.6401 20.2364 16.4301 20.5196C14.4573 23.2686 12.4755 26.0176 10.5028 28.7666C8.98675 30.8763 7.4707 32.9859 5.94551 35.1048C5.91811 35.1413 5.89071 35.187 5.86331 35.2326C5.87244 35.2418 5.88158 35.2509 5.89071 35.26C12.5029 30.4744 19.0969 25.6796 25.6999 20.8849Z" fill="#702FFF"/>
<path d="M0 20.0173C0.073063 15.0033 1.84484 10.6926 5.39753 7.14906C7.57116 4.97543 10.1558 3.48677 13.1148 2.62828C14.3478 2.2721 15.6172 2.06204 16.905 1.97985C19.2338 1.83372 21.5079 2.11684 23.7272 2.84747C24.1108 2.97533 24.4944 3.11232 24.8688 3.27672C25.2067 3.41371 25.4077 3.77902 25.3803 4.12607C25.3437 4.49139 25.0972 4.79277 24.7501 4.89324C24.54 4.95717 24.3391 4.92977 24.1382 4.84757C23.1427 4.44572 22.129 4.15347 21.0787 3.95255C19.6357 3.68769 18.1927 3.61463 16.7314 3.73336C14.3204 3.93428 12.0554 4.61925 9.9731 5.83392C6.19209 8.04408 3.65315 11.2497 2.39281 15.4417C1.81744 17.3596 1.63479 19.3323 1.79918 21.3324C2.0549 24.5107 3.15998 27.3693 5.09615 29.8991C5.31534 30.1822 5.40667 30.4836 5.26967 30.8215C5.15094 31.1411 4.90436 31.3238 4.57557 31.3695C4.24679 31.4151 3.9728 31.2964 3.77188 31.0315C3.22391 30.3283 2.73073 29.5794 2.29235 28.794C1.21467 26.8761 0.520574 24.8303 0.200923 22.6567C0.073063 21.7799 0.00913288 20.9032 0 20.0173Z" fill="#000248"/>
<path d="M36.1206 19.5607C36.1206 24.0906 34.8146 27.9356 32.1295 31.2965C30.0198 33.9359 27.353 35.8264 24.1839 36.9863C22.7135 37.5251 21.1883 37.8539 19.6266 37.9818C16.768 38.2192 14.0099 37.8174 11.3431 36.758C10.9595 36.6027 10.7403 36.283 10.7586 35.8995C10.7768 35.525 11.0234 35.2054 11.3887 35.1049C11.6079 35.041 11.818 35.0775 12.028 35.1597C12.8409 35.4885 13.6811 35.7442 14.5304 35.936C16.1378 36.2922 17.7543 36.4018 19.3983 36.2648C22.7957 35.9817 25.8187 34.7579 28.449 32.5842C31.4171 30.1275 33.2894 26.9949 34.0748 23.223C34.431 21.5243 34.4858 19.8073 34.2849 18.0903C33.9378 15.1313 32.851 12.4736 31.0518 10.0991C30.8874 9.87989 30.7778 9.65157 30.8235 9.36845C30.8874 8.994 31.0975 8.74741 31.4537 8.65608C31.8099 8.55562 32.1386 8.65608 32.3578 8.95747C32.7871 9.56024 33.2254 10.163 33.609 10.7932C34.7689 12.7111 35.5178 14.7842 35.8831 16.9853C35.9288 17.2593 35.9744 17.5241 35.9927 17.7981C36.0384 18.4648 36.084 19.1224 36.1206 19.5607Z" fill="#000248"/>
<path d="M49.0882 13.0623C45.7808 13.0623 43.5956 14.6942 43.5956 17.2615C43.5956 22.1972 50.8798 20.7244 50.8798 23.1923C50.8798 23.9883 50.1907 24.4063 49.0882 24.4063C47.6511 24.4063 45.5249 23.5704 44.1074 22.3166L42.749 25.0431C44.383 26.3965 46.7455 27.2721 49.0489 27.2721C52.12 27.2721 54.5612 25.7994 54.5612 23.0132C54.5612 17.978 47.277 19.3512 47.277 16.9431C47.277 16.2664 47.8873 15.9281 48.7929 15.9281C49.9151 15.9281 51.746 16.5252 53.2028 17.3809L54.5219 14.6146C53.1044 13.6792 51.0766 13.0623 49.0882 13.0623Z" fill="#000248"/>
<path d="M68.8649 13.2215H65.3803V21.3016C65.3803 23.1923 64.2582 24.3466 62.6045 24.3466C60.9311 24.3466 59.7302 23.1923 59.7302 21.3016V13.2215H56.2259V21.3016C56.2259 24.9834 58.7064 27.3119 62.5848 27.3119C66.4434 27.3119 68.8649 24.9834 68.8649 21.3016V13.2215Z" fill="#000248"/>
<path d="M71.3812 13.2215V27.1527H74.8855V23.2321H77.3857C80.9097 23.2321 82.9375 21.3414 82.9375 18.0775C82.9375 14.9728 80.9097 13.2215 77.3857 13.2215H71.3812ZM74.8855 16.0077H77.2085C78.7441 16.0077 79.6301 16.7441 79.6301 18.1969C79.6301 19.6697 78.7441 20.4458 77.2085 20.4458H74.8855V16.0077Z" fill="#000248"/>
<path d="M95.5507 16.0077V13.2215H84.7622V27.1527H95.7673V24.3665H88.2665V21.5603H94.842V18.7741H88.2665V16.0077H95.5507Z" fill="#000248"/>
<path d="M106.336 27.1527H110.313L107.419 22.5554C109.033 21.7394 109.919 20.207 109.919 18.0775C109.919 14.9728 107.832 13.2215 104.19 13.2215H98.0279V27.1527H101.532V23.2321H104.19H104.288L106.336 27.1527ZM101.532 20.4458V16.0077H104.19C105.706 16.0077 106.592 16.7441 106.592 18.1969C106.592 19.6697 105.706 20.4458 104.19 20.4458H101.532Z" fill="#000248"/>
<path d="M117.57 13.0623C114.262 13.0623 112.077 14.6942 112.077 17.2615C112.077 22.1972 119.361 20.7244 119.361 23.1923C119.361 23.9883 118.672 24.4063 117.57 24.4063C116.133 24.4063 114.007 23.5704 112.589 22.3166L111.231 25.0431C112.865 26.3965 115.227 27.2721 117.53 27.2721C120.602 27.2721 123.043 25.7994 123.043 23.0132C123.043 17.978 115.759 19.3512 115.759 16.9431C115.759 16.2664 116.369 15.9281 117.275 15.9281C118.397 15.9281 120.228 16.5252 121.684 17.3809L123.003 14.6146C121.586 13.6792 119.558 13.0623 117.57 13.0623Z" fill="#000248"/>
<path d="M131.48 13.1021C127.227 13.1021 124.038 16.1072 124.038 20.1672C124.038 24.2471 127.227 27.3119 131.48 27.3119C135.752 27.3119 138.941 24.2272 138.941 20.1672C138.941 16.1271 135.752 13.1021 131.48 13.1021ZM131.519 16.0674C133.645 16.0674 135.338 17.8387 135.338 20.1871C135.338 22.5355 133.645 24.3466 131.519 24.3466C129.413 24.3466 127.621 22.5355 127.621 20.1871C127.621 17.8387 129.393 16.0674 131.519 16.0674Z" fill="#000248"/>
<path d="M153.503 27.1527V13.2215H150.235V21.819L143.877 13.2215H140.786V27.1527H144.073V18.5751L150.413 27.1527H153.503Z" fill="#000248"/>
<path d="M159.767 27.1527V13.2215H156.262V27.1527H159.767Z" fill="#000248"/>
<path d="M168.987 13.1021C164.794 13.1021 161.624 16.1271 161.624 20.1473C161.624 24.2272 164.715 27.3119 168.869 27.3119C170.897 27.3119 173.082 26.2969 174.559 24.7645L172.511 22.5753C171.546 23.5704 170.208 24.2073 169.046 24.2073C166.861 24.2073 165.207 22.436 165.207 20.1075C165.207 17.8188 166.861 16.0674 169.046 16.0674C170.267 16.0674 171.606 16.764 172.511 17.8785L174.539 15.4505C173.161 14.0175 171.035 13.1021 168.987 13.1021Z" fill="#000248"/>
</svg>
