<svg width="96" height="99" viewBox="0 0 96 99" fill="none" xmlns="http://www.w3.org/2000/svg">
<circle cx="49" cy="52.0001" r="47" fill="#131F39"/>
<circle cx="47" cy="47.0001" r="47" fill="#FCA311"/>
<path d="M42.9442 32.6935H50.3157C50.7951 32.6935 51.2146 33.113 51.2146 33.5924V61.4001C51.2146 61.8795 50.7951 62.299 50.3157 62.299H42.9442C42.4648 62.299 42.0453 61.8795 42.0453 61.4001V33.5924C42.0453 33.113 42.4049 32.6935 42.9442 32.6935Z" fill="#10213E"/>
<path d="M46.6 33.2929C46.2405 33.2929 46.0007 33.0532 46.0007 32.6936V28.7982C46.0007 28.4386 46.2405 28.1989 46.6 28.1989C46.9596 28.1989 47.1993 28.4386 47.1993 28.7982V32.6936C47.1993 33.0532 46.9596 33.2929 46.6 33.2929Z" fill="#10213E"/>
<path d="M46.6 66.8538C46.2405 66.8538 46.0007 66.6141 46.0007 66.2545V62.3591C46.0007 61.9995 46.2405 61.7598 46.6 61.7598C46.9596 61.7598 47.1993 61.9995 47.1993 62.3591V66.2545C47.1993 66.5542 46.9596 66.8538 46.6 66.8538Z" fill="#10213E"/>
<path d="M55.5896 57.1453H62.9611C63.4405 57.1453 63.86 57.5648 63.86 58.0442V65.116C63.86 65.5954 63.4405 66.0149 62.9611 66.0149H55.5896C55.1102 66.0149 54.6907 65.5954 54.6907 65.116V58.0442C54.6907 57.5648 55.1102 57.1453 55.5896 57.1453Z" fill="#10213E"/>
<path d="M59.3053 57.6248C58.9457 57.6248 58.706 57.3851 58.706 57.0255V54.029C58.706 53.6694 58.9457 53.4297 59.3053 53.4297C59.6649 53.4297 59.9046 53.6694 59.9046 54.029V57.0255C59.9046 57.3851 59.6649 57.6248 59.3053 57.6248Z" fill="#10213E"/>
<path d="M59.3053 69.9105C58.9457 69.9105 58.706 69.6707 58.706 69.3111V66.3146C58.706 65.9551 58.9457 65.7153 59.3053 65.7153C59.6649 65.7153 59.9046 65.9551 59.9046 66.3146V69.3111C59.9046 69.6707 59.6649 69.9105 59.3053 69.9105Z" fill="#10213E"/>
<path d="M30.239 47.3167H37.6104C38.0898 47.3167 38.5094 47.7362 38.5094 48.2156V63.318C38.5094 63.7975 38.0898 64.217 37.6104 64.217H30.239C29.7595 64.217 29.34 63.7975 29.34 63.318V48.2156C29.34 47.6762 29.7595 47.3167 30.239 47.3167Z" fill="#10213E"/>
<path d="M33.9548 47.9159C33.5952 47.9159 33.3555 47.6762 33.3555 47.3166V44.3801C33.3555 44.0205 33.5952 43.7808 33.9548 43.7808C34.3144 43.7808 34.5541 44.0205 34.5541 44.3801V47.3166C34.5541 47.6163 34.2544 47.9159 33.9548 47.9159Z" fill="#10213E"/>
<path d="M33.9548 67.6928C33.5952 67.6928 33.3555 67.4531 33.3555 67.0935V64.1569C33.3555 63.7973 33.5952 63.5576 33.9548 63.5576C34.3144 63.5576 34.5541 63.7973 34.5541 64.1569V67.0935C34.5541 67.4531 34.2544 67.6928 33.9548 67.6928Z" fill="#10213E"/>
<path d="M61.9421 54.5682C57.0278 54.688 51.3944 50.1932 45.701 45.8183C33.0557 36.1696 16.1554 54.5682 15.9756 54.688L14.2975 43.9006C15.0766 43.4211 33.2955 35.5703 47.5589 46.4776C62.3017 57.6845 76.7449 38.6866 76.8648 38.5668L78.9024 48.2755C78.4829 48.6351 71.4111 54.3284 61.9421 54.5682Z" fill="#10213E"/>
<path d="M46.6 81.0575C27.6021 81.0575 12.2 65.5955 12.2 46.5976C12.2 27.5997 27.6021 12.1976 46.6 12.1976C65.5979 12.1976 81 27.5997 81 46.5976C81 65.5955 65.5979 80.9976 46.6 81.0575ZM46.6 15.7934C29.5798 15.7934 15.7958 29.5774 15.7958 46.5976C15.7958 63.6178 29.5798 77.4018 46.6 77.4018C63.6202 77.4018 77.4042 63.6178 77.4042 46.5976C77.4042 29.5774 63.6202 15.7934 46.6 15.7934Z" fill="#10213E"/>
</svg>
