<svg width="122" height="64" viewBox="0 0 122 64" fill="none" xmlns="http://www.w3.org/2000/svg">
<path d="M70.7795 32.939C70.6352 34.442 69.9137 35.8198 68.6149 36.8218C63.7083 41.0804 51.0089 44.2117 36.1448 44.2117C21.2807 44.2117 8.43694 41.0804 3.53035 36.8218C2.23155 35.8198 1.50999 34.442 1.36568 32.939C1.36568 26.6764 16.9513 21.6663 36.1448 21.6663C55.3382 21.6663 70.7795 26.6764 70.7795 32.939Z" stroke="white" stroke-width="1.2" stroke-miterlimit="10"/>
<path d="M70.7795 42.4585C70.7795 48.7211 55.1939 53.7312 36.0005 53.7312C16.807 53.7312 1.36568 48.7211 1.36568 42.4585C1.50999 40.9555 2.23155 39.5777 3.53035 38.5757C8.43694 42.8343 21.1364 45.9656 36.1448 45.9656C51.1532 45.9656 63.8526 42.9595 68.7592 38.5757C69.9137 39.5777 70.7795 40.9555 70.7795 42.4585Z" stroke="white" stroke-width="1.2" stroke-miterlimit="10"/>
<path d="M70.7795 51.7273C70.7795 57.9899 55.1939 63 36.0005 63C16.807 63 1.36568 57.9899 1.36568 51.7273C1.50999 50.2243 2.23155 48.8465 3.53035 47.8445C8.43694 52.1031 21.1364 55.2344 36.1448 55.2344C51.1532 55.2344 63.8526 52.2283 68.7592 47.8445C69.9137 48.8465 70.7795 50.2243 70.7795 51.7273Z" stroke="white" stroke-width="1.2" stroke-miterlimit="10"/>
<path d="M76.9849 4.38182V14.402C76.9849 14.903 76.8406 15.404 76.4077 15.7798L72.9442 18.9111C72.0783 19.6626 72.0783 20.9152 73.0885 21.6667L76.4077 24.297C76.8406 24.6727 77.1293 25.1737 77.1293 25.6747V35.5697C77.1293 37.4485 78.861 38.9515 81.0257 38.9515H117.104C119.268 38.9515 121 37.4485 121 35.5697V2.87879C121 1.75152 119.99 1 118.835 1H80.8814C78.7167 1 76.9849 2.50303 76.9849 4.38182Z" stroke="#FF9F00" stroke-width="1.4" stroke-miterlimit="10"/>
<path d="M94.4466 32.0622V29.0561C92.4263 29.0561 90.4059 28.6803 88.5299 27.8036L89.5401 25.7995C91.2718 26.6763 93.1478 27.0521 95.1682 27.0521C97.9101 27.0521 99.7862 25.7995 99.7862 24.1713C99.7862 22.543 98.3431 21.541 95.4568 20.6642C91.4161 19.5369 88.9628 18.1591 88.9628 15.5288C88.9628 12.8985 91.2718 11.2702 94.8796 10.7692V7.88843H97.3329V10.7692C99.0646 10.7692 100.796 11.145 102.384 11.7713L101.374 13.7753C99.7862 13.149 98.1988 12.7733 96.467 12.7733C93.4365 12.7733 92.282 14.1511 92.282 15.2783C92.282 16.7814 93.7251 17.5329 97.0442 18.6601C101.085 19.9127 103.105 21.4157 103.105 24.046C103.105 26.4258 100.941 28.5551 96.8999 29.0561V32.1874L94.4466 32.0622Z" fill="white"/>
<path d="M101.472 32.2147V28.7322H102.08V29.2208C102.206 29.0503 102.374 28.9137 102.583 28.8109C102.792 28.706 103.03 28.6535 103.297 28.6535C103.594 28.6535 103.837 28.7071 104.026 28.8142C104.218 28.9213 104.352 29.0711 104.43 29.2634C104.748 28.8568 105.161 28.6535 105.67 28.6535C106.068 28.6535 106.374 28.7497 106.588 28.9421C106.802 29.1323 106.909 29.4263 106.909 29.8242V32.2147H106.233V30.0209C106.233 29.7848 106.21 29.6154 106.165 29.5127C106.122 29.4077 106.042 29.3236 105.927 29.2602C105.811 29.1968 105.675 29.1651 105.519 29.1651C105.236 29.1651 105.002 29.2471 104.816 29.411C104.629 29.5728 104.536 29.8329 104.536 30.1914V32.2147H103.856V29.9521C103.856 29.6897 103.801 29.493 103.69 29.3618C103.579 29.2307 103.398 29.1651 103.146 29.1651C102.954 29.1651 102.777 29.2088 102.613 29.2962C102.452 29.3837 102.335 29.5116 102.262 29.6799C102.189 29.8482 102.152 30.0909 102.152 30.4079V32.2147H101.472Z" fill="white"/>
<path d="M107.921 28.0862V27.4075H108.601V28.0862H107.921ZM107.921 32.2147V28.7322H108.601V32.2147H107.921Z" fill="white"/>
<path d="M109.64 32.2147V28.7322H110.252V29.2274C110.547 28.8448 110.973 28.6535 111.529 28.6535C111.771 28.6535 111.993 28.6918 112.194 28.7683C112.398 28.8426 112.551 28.941 112.652 29.0634C112.752 29.1858 112.823 29.3312 112.863 29.4995C112.888 29.6088 112.901 29.8001 112.901 30.0734V32.2147H112.221V30.0963C112.221 29.8559 112.194 29.6766 112.142 29.5586C112.089 29.4383 111.994 29.3432 111.858 29.2733C111.725 29.2011 111.567 29.1651 111.386 29.1651C111.096 29.1651 110.846 29.2449 110.634 29.4045C110.425 29.564 110.32 29.8668 110.32 30.3128V32.2147H109.64Z" fill="white"/>
</svg>
