<svg width="38" height="30" viewBox="0 0 38 30" fill="none" xmlns="http://www.w3.org/2000/svg">
<path d="M10.8382 19.9955C6.32596 19.9955 2.38882 18.9338 0.796272 17.3412C0.30966 16.8989 0.0442352 16.3238 0.0442352 15.6602C0.0442352 13.1829 4.68917 11.325 10.8824 11.325C17.0757 11.325 21.6764 13.2272 21.6764 15.6602C21.6321 16.2796 21.3667 16.8989 20.8801 17.297C19.2875 18.9338 15.3504 19.9955 10.8382 19.9955ZM10.8382 12.2539C4.9546 12.2539 0.884747 14.0677 0.884747 15.6602C0.928985 16.0584 1.10593 16.4123 1.4156 16.6777C2.8312 18.1375 6.63562 19.1107 10.8382 19.1107C15.0407 19.1107 18.8452 18.1375 20.2608 16.7219C20.5704 16.4565 20.7474 16.1026 20.7916 15.7045C20.7916 14.0677 16.6775 12.2539 10.8382 12.2539Z" fill="white"/>
<path d="M10.8382 22.8708C4.77765 22.8708 0 20.9686 0 18.5798C0.0442375 17.9604 0.309662 17.3411 0.796275 16.943L1.10594 16.6333L1.4156 16.943C2.8312 18.3586 6.63562 19.3318 10.8382 19.3318C15.0407 19.3318 18.8452 18.3586 20.2608 16.943L20.5704 16.6333L20.8801 16.943C21.3667 17.3853 21.6321 17.9604 21.6764 18.624C21.6764 20.9686 16.8987 22.8708 10.8382 22.8708ZM1.10594 17.8277C0.973225 18.0489 0.88475 18.3143 0.88475 18.5798C0.88475 20.2165 4.9546 22.0303 10.8382 22.0303C16.7218 22.0303 20.7916 20.1723 20.7916 18.5798C20.7916 18.3143 20.7031 18.0931 20.5262 17.872C18.7567 19.2876 15.0407 20.2165 10.8382 20.2165C6.63562 20.2165 2.91967 19.2876 1.10594 17.8277Z" fill="white"/>
<path d="M10.8382 26.1001C4.77765 26.1001 0 24.1979 0 21.7648C0.0442375 21.1455 0.309662 20.5262 0.796275 20.128L1.10594 19.8184L1.4156 20.128C2.8312 21.5436 6.63562 22.5168 10.8382 22.5168C15.0407 22.5168 18.8452 21.5436 20.2608 20.128L20.5704 19.8184L20.8801 20.128C21.3667 20.5262 21.6321 21.1455 21.6764 21.7648C21.6764 24.1979 16.8987 26.1001 10.8382 26.1001ZM1.10594 21.057C0.973225 21.2782 0.88475 21.4994 0.88475 21.7648C0.88475 23.4016 4.9546 25.2153 10.8382 25.2153C16.7218 25.2153 20.7916 23.4016 20.7916 21.7648C20.7916 21.4994 20.7031 21.2782 20.5262 21.057C18.7567 22.4726 15.0407 23.4016 10.8382 23.4016C6.63562 23.4016 2.91967 22.4726 1.10594 21.057Z" fill="white"/>
<path d="M10.8382 29.2851C4.77765 29.2851 0 27.4272 0 24.9941C0.0442375 24.3748 0.309662 23.7555 0.796275 23.3573L1.10594 23.0034L1.4156 23.3131C2.8312 24.7729 6.63562 25.7461 10.8382 25.7461C15.0407 25.7461 18.8452 24.7729 20.2608 23.3573L20.5704 23.0477L20.8801 23.3573C21.3667 23.7997 21.6321 24.3748 21.6764 25.0383C21.6764 27.4272 16.8987 29.2851 10.8382 29.2851ZM1.10594 24.2863C0.973225 24.5075 0.88475 24.7287 0.88475 24.9941C0.88475 26.6309 4.9546 28.4446 10.8382 28.4446C16.7218 28.4446 20.7916 26.6309 20.7916 24.9941C20.7916 24.7287 20.7031 24.5075 20.5262 24.2863C18.7567 25.7019 15.0407 26.6309 10.8382 26.6309C6.63562 26.6309 2.91967 25.7019 1.10594 24.2863Z" fill="white"/>
<path d="M30.0815 25.5692C26.7637 25.5692 23.8882 24.5075 22.6938 22.8707C22.3399 22.4283 22.163 21.8532 22.163 21.2781C22.163 18.8451 25.6577 16.9429 30.0815 16.9429C34.5052 16.9429 38 18.8451 38 21.2781C38 21.8532 37.823 22.4283 37.4691 22.8707C36.2747 24.5517 33.3993 25.5692 30.0815 25.5692ZM30.0815 17.8276C26.2771 17.8276 23.0477 19.3759 23.0477 21.2781C23.0477 21.6763 23.1804 22.0744 23.4459 22.3841C24.4633 23.7997 27.1176 24.7287 30.1257 24.7287C33.1339 24.7287 35.7881 23.7997 36.8056 22.3841C37.0268 22.0744 37.1595 21.6763 37.2037 21.2781C37.1152 19.4202 33.8859 17.8276 30.0815 17.8276Z" fill="white"/>
<path d="M30.0815 28.7987C25.6135 28.7987 22.163 26.8965 22.163 24.4634C22.163 23.8884 22.3842 23.3133 22.6938 22.8709L23.0477 22.3843L23.4016 22.8709C24.4191 24.2865 27.1176 25.2155 30.0815 25.2155C33.0454 25.2155 35.7439 24.2865 36.7613 22.8709L37.1152 22.3843L37.4691 22.8709C37.823 23.3133 38 23.8884 38 24.4634C38 26.8965 34.5052 28.7987 30.0815 28.7987ZM23.1362 23.9326C23.0477 24.1095 23.0477 24.2865 23.0477 24.5077C23.0477 26.3657 26.2771 27.9582 30.0815 27.9582C33.8859 27.9582 37.1152 26.4099 37.1152 24.5077C37.1152 24.3307 37.071 24.1095 37.0268 23.9326C35.6554 25.2597 33.0454 26.1445 30.0815 26.1445C27.1176 26.1445 24.5076 25.2597 23.1362 23.9326Z" fill="white"/>
<path d="M24.3749 13.8906C23.9325 13.8906 23.5344 13.7136 23.2689 13.4482C22.9593 13.1385 22.8266 12.7404 22.8266 12.3423V8.93597C22.8266 8.8475 22.7823 8.80326 22.7381 8.75902L21.7206 7.83004L21.6764 7.7858C21.2782 7.38766 21.2782 6.67986 21.6764 6.28172L22.6938 5.17579C22.7381 5.13155 22.7823 5.08731 22.7823 4.99884V1.54831C22.7823 0.663562 23.4901 0 24.3306 0H35.6112C35.9208 0 36.1863 0.132712 36.3632 0.309662C36.5844 0.53085 36.7171 0.796275 36.7171 1.0617V12.3423C36.7171 13.227 36.0093 13.9348 35.1688 13.9348H24.3749V13.8906ZM35.6554 0.796275H24.3749C23.9767 0.796275 23.6228 1.15017 23.6228 1.54831V4.99884C23.6228 5.26426 23.4901 5.52969 23.3132 5.70664L22.2957 6.81257C22.2072 6.90105 22.163 7.078 22.2957 7.16647L23.3132 8.09546C23.5344 8.31665 23.6671 8.58207 23.6671 8.89174V12.298C23.6671 12.5192 23.7555 12.6962 23.8883 12.8289C24.021 12.9616 24.2422 13.0501 24.4191 13.0501H35.1688C35.5669 13.0501 35.9208 12.6962 35.9208 12.298V1.0617C35.9208 0.973225 35.8766 0.928987 35.8324 0.88475C35.7881 0.840512 35.6997 0.796275 35.6554 0.796275Z" fill="#FF9F00"/>
<path d="M27.5599 10.8381V9.82067C26.9406 9.82067 26.3213 9.68796 25.7904 9.37829L26.0559 8.71473C26.5867 9.02439 27.1618 9.15711 27.7369 9.15711C28.5774 9.15711 29.1082 8.75897 29.1082 8.18388C29.1082 7.6088 28.6659 7.29913 27.7811 6.98947C26.5867 6.59133 25.8789 6.10472 25.8789 5.21997C25.8789 4.33522 26.5425 3.7159 27.6484 3.58318V2.52148H28.3562V3.49471C28.8871 3.49471 29.4179 3.62742 29.8603 3.84861L29.5506 4.51217C29.1082 4.29098 28.5774 4.15827 28.0908 4.15827C27.206 4.15827 26.8521 4.64488 26.8521 5.04302C26.8521 5.57387 27.2945 5.8393 28.312 6.1932C29.5064 6.63557 30.1257 7.16642 30.1257 8.05117C30.1257 8.84745 29.5064 9.59948 28.2677 9.77643V10.8381H27.5599Z" fill="white"/>
<path d="M29.8603 10.8383V9.64385H30.0815V9.8208C30.1257 9.77656 30.17 9.73232 30.2584 9.68808C30.3469 9.64385 30.4354 9.64385 30.5239 9.64385C30.6123 9.64385 30.7008 9.64385 30.7893 9.68808C30.8778 9.73232 30.922 9.77656 30.922 9.8208C31.0547 9.68808 31.1874 9.59961 31.3644 9.59961C31.4971 9.59961 31.6298 9.64385 31.674 9.68808C31.7625 9.73232 31.8067 9.86503 31.8067 9.99775V10.8383H31.5856V10.0862C31.5856 9.99775 31.5856 9.95351 31.5413 9.90927C31.5413 9.86503 31.4971 9.86503 31.4528 9.8208C31.4086 9.8208 31.3644 9.77656 31.3201 9.77656C31.2317 9.77656 31.1432 9.8208 31.0547 9.86503C31.0105 9.95351 30.9662 10.042 30.9662 10.1747V10.8825H30.745V10.0862C30.745 9.99775 30.745 9.90927 30.7008 9.86503C30.6566 9.8208 30.6123 9.77656 30.5239 9.77656C30.4354 9.77656 30.3911 9.77656 30.3469 9.8208C30.3027 9.86503 30.2584 9.90927 30.2142 9.95351C30.17 9.99775 30.17 10.0862 30.17 10.2189V10.8383H29.8603Z" fill="white"/>
<path d="M33.0012 10.7054C32.9127 10.7496 32.8242 10.7939 32.7357 10.8381C32.6473 10.8823 32.5588 10.8823 32.4703 10.8823C32.2934 10.8823 32.2049 10.8381 32.1164 10.7939C32.0279 10.7496 31.9837 10.6612 31.9837 10.5284C31.9837 10.4842 31.9837 10.3957 32.0279 10.3515C32.0722 10.3073 32.1164 10.263 32.1607 10.2188C32.2049 10.1745 32.2491 10.1745 32.3376 10.1745C32.3818 10.1745 32.4703 10.1745 32.5588 10.1303C32.7357 10.1303 32.9127 10.0861 33.0012 10.0418C33.0012 9.9976 33.0012 9.9976 33.0012 9.9976C33.0012 9.90912 32.9569 9.86489 32.9127 9.82065C32.8685 9.77641 32.78 9.73217 32.6473 9.73217C32.5146 9.73217 32.4703 9.73217 32.3818 9.77641C32.3376 9.82065 32.2934 9.86489 32.2491 9.95336L32.0279 9.90912C32.0279 9.82065 32.0722 9.77641 32.1164 9.68794C32.1607 9.59946 32.2491 9.59946 32.3376 9.55522C32.4261 9.51099 32.5588 9.51099 32.6473 9.51099C32.78 9.51099 32.8685 9.51099 32.9569 9.55522C33.0454 9.59946 33.0896 9.59946 33.1339 9.6437C33.1781 9.68794 33.1781 9.73217 33.2224 9.77641C33.2224 9.82065 33.2224 9.86489 33.2224 9.95336V10.2188C33.2224 10.3957 33.2224 10.5284 33.2224 10.5727C33.2224 10.6169 33.2666 10.6612 33.2666 10.7054H33.0012C33.0012 10.7496 33.0454 10.8381 33.0012 10.7054ZM33.0012 10.263C32.9127 10.3073 32.78 10.3073 32.603 10.3515C32.5146 10.3515 32.4261 10.3957 32.3818 10.3957C32.3376 10.3957 32.2934 10.44 32.2934 10.44C32.2491 10.4842 32.2491 10.4842 32.2491 10.5284C32.2491 10.5727 32.2934 10.6169 32.3376 10.6612C32.3818 10.7054 32.4703 10.7054 32.5588 10.7054C32.6473 10.7054 32.7357 10.7054 32.8242 10.6612C32.9127 10.6169 32.9569 10.5727 33.0012 10.5284C33.0454 10.4842 33.0454 10.3957 33.0454 10.3073V10.263H33.0012Z" fill="white"/>
<path d="M33.3551 10.8382L33.8859 10.2189L33.3993 9.6438H33.709L33.9302 9.90922C33.9744 9.95346 34.0186 9.9977 34.0186 10.0419C34.0629 9.9977 34.1071 9.95346 34.1071 9.90922L34.3283 9.6438H34.5937L34.1071 10.2189L34.638 10.8382H34.3283L34.0186 10.4843L33.9302 10.3958L33.5763 10.8824H33.3551V10.8382Z" fill="white"/>
</svg>
