<svg width="50" height="58" viewBox="0 0 50 58" fill="none" xmlns="http://www.w3.org/2000/svg">
<path d="M33.1696 27.55C33.1696 29.3172 31.8862 30.7672 30.2567 30.7672C28.6607 30.7672 27.3438 29.3172 27.3438 27.55C27.3438 25.7828 28.6272 24.3328 30.2567 24.3328C31.8862 24.3328 33.1696 25.7828 33.1696 27.55ZM19.8326 24.3328C18.2031 24.3328 16.9196 25.7828 16.9196 27.55C16.9196 29.3172 18.2366 30.7672 19.8326 30.7672C21.4621 30.7672 22.7455 29.3172 22.7455 27.55C22.7679 25.7828 21.4621 24.3328 19.8326 24.3328ZM50 5.96992V58C42.8013 51.543 45.1004 53.684 36.7411 45.7883L38.2589 51.1578H5.85938C2.63393 51.1578 0 48.4844 0 45.1766V5.96992C0 2.67344 2.63393 0 5.85938 0H44.1406C47.3661 0 50 2.67344 50 5.96992ZM41.8527 33.4633C41.8527 24.1289 37.7344 16.5617 37.7344 16.5617C33.6161 13.4352 29.7098 13.5145 29.7098 13.5145L29.308 13.9789C34.1629 15.4855 36.4174 17.6605 36.4174 17.6605C29.6317 13.8883 21.6629 13.8883 15.0781 16.8223C14.0179 17.3207 13.3929 17.6605 13.3929 17.6605C13.3929 17.6605 15.7589 15.3723 20.904 13.8656L20.6138 13.5145C20.6138 13.5145 16.6964 13.4238 12.5893 16.5617C12.5893 16.5617 8.47098 24.1289 8.47098 33.4633C8.47098 33.4633 10.8705 37.666 17.1875 37.8699C17.1875 37.8699 18.2478 36.5672 19.1071 35.4684C15.4799 34.3695 14.1071 32.0473 14.1071 32.0473C14.5312 32.3418 15.2232 32.7383 15.279 32.7723C20.1004 35.5137 26.9531 36.4086 33.1027 33.7918C34.1071 33.418 35.2121 32.8629 36.3839 32.0813C36.3839 32.0813 34.9554 34.4602 31.2165 35.5363C32.0759 36.6352 33.1027 37.8812 33.1027 37.8812C39.4308 37.666 41.8527 33.4633 41.8527 33.4633Z" fill="#FCA311"/>
</svg>
