<svg width="28" height="29" viewBox="0 0 28 29" fill="none" xmlns="http://www.w3.org/2000/svg">
<g filter="url(#filter0_d)">
<path d="M16.4565 6.58532C17.136 5.20901 17.0837 3.57138 16.2997 2.35187C15.8642 3.01389 15.3764 3.65849 14.8712 4.26824C14.5053 4.72121 13.9478 4.98253 13.3729 4.99995C12.798 5.01737 12.2405 5.06964 11.5436 5.10448C12.3624 6.46337 13.4426 7.16023 14.8712 7.22992C15.359 9.33793 14.0698 11.655 11.9966 12.4564C11.6656 12.1428 11.7353 11.6202 11.3694 11.3066C10.4461 11.6898 10.1151 12.4564 10.0454 13.3972L8.79102 13.9198L8.96523 13.9372C11.1952 14.1115 11.6482 15.0871 13.8259 15.2264C15.3067 15.331 16.23 14.9477 17.2579 14.6864C18.6342 11.8292 17.6238 9.19856 16.4565 6.58532ZM13.3206 12.6306C14.1394 12.0905 14.8537 11.6027 15.2893 10.8188C15.7248 10.0348 15.7422 9.21598 15.7597 8.25779C16.9792 10.6271 15.8293 12.7003 13.3206 12.6306Z" fill="#FCA311"/>
<path d="M23.216 17.439C22.2752 16.8815 21.2299 16.5505 20.1324 16.446C18.9129 16.3415 18.094 16.5854 17.2404 16.8293C16.3867 17.0732 15.5156 17.3171 14.2613 17.2474C13.4076 17.1951 12.5714 16.9686 11.7874 16.5854C11.0383 16.2195 10.2369 16.0104 9.40066 15.9408C7.97209 15.8188 6.45641 16.0976 4.92331 16.7422L4.78394 16.4286C6.3693 15.7665 7.93725 15.4878 9.41808 15.6097C10.2892 15.6794 11.1254 15.9059 11.9094 16.2718C12.6411 16.6376 13.4425 16.8467 14.2613 16.8989C15.4634 16.9861 16.2996 16.7422 17.1184 16.4982C17.9721 16.2543 18.8606 15.993 20.1324 16.115C21.2648 16.2195 22.3798 16.5679 23.3554 17.1428L23.216 17.439Z" fill="#FCA311"/>
<path d="M23.2508 15.4878C22.3101 14.9303 21.2648 14.5993 20.1672 14.4947C18.9477 14.3902 18.1289 14.6341 17.2752 14.878C16.4215 15.1219 15.5505 15.3658 14.2961 15.2787C13.4425 15.2265 12.6062 15 11.8397 14.6341C11.0905 14.2857 10.2891 14.0592 9.45291 13.9895C8.02434 13.8676 6.50866 14.1463 4.97555 14.7909L4.83618 14.4773C6.42155 13.8153 7.98949 13.5366 9.47033 13.6585C10.3414 13.7282 11.1776 13.9547 11.9616 14.3205C12.6933 14.669 13.4947 14.878 14.3135 14.9477C15.5156 15.0174 16.3519 14.7909 17.1707 14.547C18.0243 14.3031 18.9128 14.0418 20.1846 14.1637C21.317 14.2683 22.432 14.6167 23.4076 15.209L23.2508 15.4878Z" fill="#FCA311"/>
<path d="M7.22774 3.37096L6.43188 4.29498L20.7675 16.6421L21.5633 15.7181L7.22774 3.37096Z" fill="#FCA311"/>
<path d="M14 20.0174C8.47735 20.0174 4 15.5226 4 10C4 4.47735 8.47735 0 14 0C19.5226 0 24 4.47735 24 10C24 15.5226 19.5226 20 14 20.0174ZM14 1.0453C9.05226 1.0453 5.0453 5.05227 5.0453 10C5.0453 14.9477 9.05226 18.9547 14 18.9547C18.9477 18.9547 22.9547 14.9477 22.9547 10C22.9547 5.05227 18.9477 1.0453 14 1.0453Z" fill="#FCA311"/>
</g>
<defs>
<filter id="filter0_d" x="0" y="0" width="28" height="28.0174" filterUnits="userSpaceOnUse" color-interpolation-filters="sRGB">
<feFlood flood-opacity="0" result="BackgroundImageFix"/>
<feColorMatrix in="SourceAlpha" type="matrix" values="0 0 0 0 0 0 0 0 0 0 0 0 0 0 0 0 0 0 127 0" result="hardAlpha"/>
<feOffset dy="4"/>
<feGaussianBlur stdDeviation="2"/>
<feComposite in2="hardAlpha" operator="out"/>
<feColorMatrix type="matrix" values="0 0 0 0 0 0 0 0 0 0 0 0 0 0 0 0 0 0 0.25 0"/>
<feBlend mode="normal" in2="BackgroundImageFix" result="effect1_dropShadow"/>
<feBlend mode="normal" in="SourceGraphic" in2="effect1_dropShadow" result="shape"/>
</filter>
</defs>
</svg>
