<svg width="39" height="52" viewBox="0 0 39 52" fill="none" xmlns="http://www.w3.org/2000/svg">
<path d="M28.3394 33.3148C25.5855 33.3148 22.3873 30.6497 19.2779 28.1622C12.2597 22.5654 2.4875 32.7818 2.39867 32.7818L1.59912 26.652C2.04331 26.3854 12.4374 22.21 20.4328 28.5176C28.606 35.0028 37.0456 24.431 37.1344 24.3422L38.2005 29.8501C35.2688 32.0711 31.893 33.226 28.3394 33.3148Z" fill="white"/>
<path d="M34.9134 0.799988H18.8337C17.0569 0.799988 15.4579 1.51069 14.1253 2.66559L2.13212 13.9481C1.95444 14.1257 1.68793 14.3922 1.51025 14.6588V14.7476C0.53303 15.9025 0 17.4127 0 18.923V47.3512C0 49.5722 1.77677 51.2601 3.99772 51.2601H35.0023C37.2232 51.2601 39 49.4834 39 47.3512V4.70887C38.9112 2.57675 37.1344 0.799988 34.9134 0.799988ZM15.9909 4.62003C16.2574 4.44236 16.4351 4.26468 16.7016 4.087V13.1485C16.7016 13.9481 15.9909 14.6588 15.1913 14.6588H5.41913L15.9909 4.62003ZM36.1572 47.3512C36.1572 48.0619 35.6241 48.595 34.9134 48.595H3.99772C3.28702 48.595 2.75399 48.0619 2.75399 47.3512V18.923C2.75399 18.39 2.84282 17.8569 3.10934 17.3239H15.2802C17.59 17.3239 19.4556 15.4583 19.4556 13.1485V3.46514H35.0023C35.713 3.46514 36.246 3.99817 36.246 4.70887V47.3512H36.1572Z" fill="white"/>
<path d="M9.68339 41.7544C9.68339 41.8432 9.68339 41.9321 9.68339 42.0209C9.68339 42.1098 9.59456 42.1986 9.59456 42.2874C9.50572 42.3763 9.50572 42.4651 9.41688 42.4651C9.32804 42.554 9.2392 42.554 9.06153 42.554C9.15036 42.554 9.2392 42.6428 9.41688 42.6428C9.50572 42.6428 9.59456 42.7316 9.68339 42.8205C9.77223 42.9093 9.77223 42.9981 9.86107 43.087C9.86107 43.1758 9.94991 43.3535 9.94991 43.4423C9.94991 43.62 9.94991 43.7977 9.86107 43.8865C9.77223 43.9754 9.68339 44.153 9.50572 44.2419C9.2392 44.3307 9.06153 44.3307 8.88385 44.4196C8.70617 44.4196 8.5285 44.5084 8.35082 44.5084H7.81779H7.55128H7.19592V41.0437H7.46244H7.72895H7.99547H8.35082C8.5285 41.0437 8.70617 41.0437 8.88385 41.0437C9.06153 41.0437 9.15036 41.1325 9.32804 41.2214C9.41688 41.3102 9.59456 41.3991 9.68339 41.4879C9.68339 41.4879 9.68339 41.5767 9.68339 41.7544ZM8.08431 42.3763H8.26198H8.43966C8.5285 42.3763 8.70617 42.2874 8.79501 42.1986C8.88385 42.1098 8.97269 42.0209 8.97269 41.9321C8.97269 41.8432 8.97269 41.7544 8.88385 41.7544C8.88385 41.6656 8.79501 41.6656 8.70617 41.5767C8.61733 41.5767 8.61734 41.4879 8.5285 41.4879C8.43966 41.4879 8.35082 41.4879 8.26198 41.4879H8.08431H7.90663V42.3763H8.08431ZM8.35082 43.8865C8.43966 43.8865 8.5285 43.8865 8.61733 43.8865C8.70617 43.8865 8.79501 43.7977 8.79501 43.7977C8.88385 43.7977 8.88385 43.7089 8.97269 43.62C8.97269 43.5312 9.06153 43.4423 9.06153 43.3535C9.06153 43.2647 9.06153 43.1758 8.97269 43.087C8.97269 42.9981 8.88385 42.9981 8.79501 42.9093C8.70617 42.9093 8.61734 42.8205 8.5285 42.8205C8.43966 42.8205 8.35082 42.8205 8.26198 42.8205H7.90663V43.7977L8.35082 43.8865Z" fill="white"/>
<path d="M10.9271 43.2647H11.4601V43.7977C11.549 43.7977 11.6378 43.8866 11.7266 43.8866C11.8155 43.8866 11.9043 43.8866 12.082 43.8866C12.2597 43.8866 12.4373 43.8866 12.5262 43.7977C12.615 43.7089 12.7039 43.62 12.7039 43.5312C12.7039 43.4424 12.615 43.3535 12.615 43.2647C12.5262 43.1759 12.4373 43.087 12.2597 43.087L11.8155 42.9093C11.6378 42.8205 11.549 42.8205 11.3713 42.7317C11.2824 42.6428 11.1048 42.554 11.0159 42.4651C10.9271 42.2875 10.8383 42.1986 10.9271 42.021C10.9271 41.8433 10.9271 41.7544 11.0159 41.5768C11.1048 41.4879 11.1936 41.3102 11.2824 41.2214C11.3713 41.1326 11.549 41.0437 11.7266 41.0437C11.9043 40.9549 12.082 40.9549 12.2597 40.9549C12.4373 40.9549 12.7039 40.9549 12.8815 41.0437C13.0592 41.0437 13.2369 41.1326 13.4146 41.2214V42.2875H12.7927V41.7544H12.4373C12.3485 41.7544 12.2597 41.7544 12.1708 41.7544C11.9932 41.7544 11.9043 41.7544 11.7266 41.8433C11.6378 41.9321 11.549 42.021 11.549 42.1098C11.549 42.1986 11.6378 42.2875 11.6378 42.3763C11.7266 42.4651 11.8155 42.554 11.9932 42.554L12.4373 42.7317C12.615 42.8205 12.7039 42.8205 12.8815 42.9093C12.9704 42.9982 13.1481 43.087 13.2369 43.1759C13.3257 43.3535 13.4146 43.4424 13.3257 43.62C13.3257 43.7977 13.3257 43.9754 13.2369 44.0642C13.1481 44.2419 13.0592 44.3307 12.9704 44.4196C12.7927 44.5084 12.7039 44.5973 12.5262 44.5973C12.3485 44.6861 12.1708 44.6861 11.9932 44.6861C11.9043 44.6861 11.7266 44.6861 11.6378 44.6861L11.2824 44.5973C11.1936 44.5973 11.1048 44.5084 11.0159 44.5084L10.8383 44.3307L10.9271 43.2647Z" fill="white"/>
<path d="M16.7016 43.2647H17.3234V44.2419C17.2346 44.3307 17.0569 44.4196 16.8793 44.4196C16.7016 44.4196 16.5239 44.5084 16.3462 44.5084C16.0797 44.5084 15.902 44.5084 15.6355 44.4196C15.4578 44.3307 15.1913 44.2419 15.1025 44.0642C14.9248 43.8865 14.836 43.7089 14.7471 43.5312C14.6583 43.2647 14.5695 42.9981 14.5695 42.6428C14.5695 42.3763 14.5695 42.0209 14.7471 41.7544C14.836 41.5767 15.0137 41.3102 15.1913 41.2214C15.369 41.0437 15.5467 40.9549 15.7244 40.9549C15.902 40.866 16.1685 40.866 16.3462 40.866C16.5239 40.866 16.7016 40.866 16.8793 40.866C16.9681 40.866 17.1458 40.9549 17.2346 40.9549V42.0209H16.6127V41.4879C16.5239 41.4879 16.3462 41.4879 16.2574 41.4879C16.0797 41.4879 15.9909 41.4879 15.902 41.5767C15.8132 41.6656 15.6355 41.6656 15.6355 41.7544C15.5467 41.8432 15.4578 42.0209 15.4578 42.1098C15.369 42.2874 15.369 42.4651 15.369 42.6428C15.369 42.8205 15.369 42.9981 15.4578 43.087C15.4578 43.2647 15.5467 43.3535 15.6355 43.4423C15.7244 43.5312 15.8132 43.62 15.9909 43.7089C16.1685 43.7977 16.2574 43.7977 16.4351 43.7977C16.5239 43.7977 16.7016 43.7977 16.7904 43.7977L16.7016 43.2647Z" fill="white"/>
<path d="M18.3895 43.2647H19.0113V43.7977C19.1002 43.7977 19.189 43.8866 19.2779 43.8866C19.3667 43.8866 19.4555 43.8866 19.5444 43.8866C19.722 43.8866 19.8997 43.8866 19.9886 43.7977C20.0774 43.7089 20.1662 43.62 20.1662 43.5312C20.1662 43.4424 20.0774 43.3535 19.9886 43.2647C19.8997 43.1759 19.8109 43.087 19.6332 43.087L19.189 42.9093C19.0113 42.8205 18.9225 42.8205 18.7448 42.7317C18.656 42.6428 18.4783 42.554 18.3895 42.4651C18.3006 42.2875 18.2118 42.1986 18.2118 42.021C18.2118 41.8433 18.2118 41.7544 18.3006 41.5768C18.3895 41.4879 18.4783 41.3102 18.5671 41.2214C18.656 41.1326 18.8337 41.0437 19.0113 41.0437C19.189 40.9549 19.3667 40.9549 19.5444 40.9549C19.722 40.9549 19.9886 40.9549 20.1662 41.0437C20.3439 41.0437 20.5216 41.1326 20.6993 41.2214V42.2875H20.0774V41.7544H19.8109C19.722 41.7544 19.6332 41.7544 19.5444 41.7544C19.3667 41.7544 19.2779 41.7544 19.1002 41.8433C19.0113 41.9321 18.9225 42.021 18.9225 42.1098C18.9225 42.1986 19.0113 42.2875 19.1002 42.3763C19.189 42.4651 19.2779 42.554 19.4555 42.554L19.8997 42.7317C20.0774 42.8205 20.1662 42.8205 20.3439 42.9093C20.4327 42.9982 20.6104 43.087 20.6993 43.1759C20.7881 43.3535 20.8769 43.4424 20.8769 43.62C20.8769 43.7977 20.8769 43.9754 20.7881 44.0642C20.6993 44.2419 20.6104 44.3307 20.5216 44.4196C20.3439 44.5084 20.2551 44.5973 20.0774 44.5973C19.8997 44.6861 19.722 44.6861 19.5444 44.6861C19.4555 44.6861 19.2779 44.6861 19.189 44.6861L18.9225 44.5973C18.8337 44.5973 18.7448 44.5084 18.656 44.5084L18.3895 44.3307V43.2647Z" fill="white"/>
<path d="M24.164 43.2647H24.7858V44.2419C24.697 44.3307 24.5193 44.4196 24.3417 44.4196C24.164 44.4196 23.9863 44.5084 23.8086 44.5084C23.5421 44.5084 23.3644 44.5084 23.0979 44.4196C22.9202 44.3307 22.6537 44.2419 22.5649 44.0642C22.3872 43.8865 22.2984 43.7089 22.2095 43.5312C22.1207 43.2647 22.0319 42.9981 22.0319 42.6428C22.0319 42.3763 22.1207 42.0209 22.2095 41.7544C22.2984 41.5767 22.4761 41.3102 22.6537 41.2214C22.8314 41.0437 23.0091 40.9549 23.1868 40.9549C23.3644 40.866 23.6309 40.866 23.8086 40.866C23.9863 40.866 24.164 40.866 24.3417 40.866C24.4305 40.866 24.6082 40.9549 24.697 40.9549V42.0209H24.0751V41.4879C23.9863 41.4879 23.8086 41.4879 23.7198 41.4879C23.5421 41.4879 23.4533 41.4879 23.3644 41.5767C23.2756 41.6656 23.0979 41.6656 23.0979 41.7544C23.0091 41.8432 22.9202 42.0209 22.9202 42.1098C22.8314 42.2874 22.8314 42.4651 22.8314 42.6428C22.8314 42.8205 22.8314 42.9981 22.9202 43.087C22.9202 43.2647 23.0091 43.3535 23.0979 43.4423C23.1868 43.5312 23.2756 43.62 23.4533 43.7089C23.6309 43.7977 23.7198 43.7977 23.8975 43.7977C23.9863 43.7977 24.164 43.7977 24.2528 43.7977V43.2647H24.164Z" fill="white"/>
<path d="M27.6287 43.62H26.5627L26.2962 44.4196H25.5854L26.8292 40.9549H27.5399L28.7836 44.4196H27.9841L27.6287 43.62ZM26.6515 43.087H27.4511L27.0957 41.9321L26.6515 43.087Z" fill="white"/>
<path d="M30.205 42.3763V42.8205V44.5084H29.4943V41.0437H30.205L31.5375 43.1758V42.7316V41.0437H32.2482V44.5084H31.6264L30.205 42.3763Z" fill="white"/>
</svg>
