<?xml version="1.0" encoding="utf-8"?>
<!-- Generator: Adobe Illustrator 23.0.1, SVG Export Plug-In . SVG Version: 6.00 Build 0)  -->
<svg version="1.1" id="Layer_1" xmlns="http://www.w3.org/2000/svg" xmlns:xlink="http://www.w3.org/1999/xlink" x="0px" y="0px"
	 viewBox="0 0 49 49" style="enable-background:new 0 0 49 49;" xml:space="preserve">
<style type="text/css">
	.st0{fill:#B2F4F9;}
	.st1{fill:#0DBFD8;}
</style>
<circle class="st0" cx="24.5" cy="24.5" r="24.5"/>
<path class="st1" d="M34.7,23.2c-0.4,0-0.8,0.1-1.1,0.3c-0.4,0.2-0.9,0.4-1.4,0.4h-0.4v-4.2c0-0.8-0.6-1.4-1.4-1.4h-4.2V18
	c0-0.5,0.2-1,0.4-1.5c0.1-0.3,0.2-0.6,0.2-0.9c0.1-1.3-1-2.5-2.3-2.5c-1.3,0-2.4,1-2.4,2.4c0,0.4,0.1,0.8,0.3,1.1
	c0.2,0.4,0.4,0.9,0.4,1.4v0.4h-4.3c-0.8,0-1.4,0.6-1.4,1.4v4.2h-0.3c-0.5,0-1-0.2-1.5-0.4c-0.3-0.1-0.6-0.2-0.9-0.2
	c-1.3-0.1-2.4,1-2.4,2.3c0,1.3,1,2.4,2.3,2.4c0.4,0,0.8-0.1,1.1-0.3c0.4-0.2,0.9-0.4,1.4-0.4h0.4v4.2c0,0.8,0.6,1.4,1.4,1.4h5v-6.8
	l-1.1,1.2c-0.4,0.4-1.1,0.4-1.4,0c-0.4-0.4-0.4-1.1,0-1.5l2.9-3c0.4-0.4,1.1-0.4,1.4,0l2.9,3c0.4,0.4,0.4,1.1,0,1.5
	c-0.2,0.2-0.5,0.3-0.7,0.3c-0.3,0-0.5-0.1-0.7-0.3l-1.1-1.2V33h5c0.8,0,1.4-0.6,1.4-1.4v-4.2h0.3c0.5,0,1,0.2,1.5,0.4
	c0.3,0.1,0.6,0.2,0.9,0.2c1.3,0.1,2.4-1,2.4-2.3C37.1,24.3,36,23.2,34.7,23.2z"/>
</svg>
