<svg width="43" height="43" viewBox="0 0 43 43" fill="none" xmlns="http://www.w3.org/2000/svg">
<circle cx="21.5" cy="21.5" r="21.5" fill="#DCFEEC"/>
<path d="M21.4697 10.5306L31.5313 15.106V28.9592H28.0998V17.8173H14.8397V28.9592H11.4082V15.106L21.4697 10.5306Z" fill="#259156"/>
<path d="M24.0963 26.2267H26.8289V28.9592H24.0963V26.2267Z" fill="#259156"/>
<path d="M20.0929 26.2267H22.8254V28.9592H20.0929V26.2267Z" fill="#259156"/>
<path d="M24.0963 22.6469H26.8289V25.3794H24.0963V22.6469Z" fill="#259156"/>
<path d="M20.0929 22.6469H22.8254V25.3794H20.0929V22.6469Z" fill="#259156"/>
<path d="M24.0963 19.0883H26.8289V21.8208H24.0963V19.0883Z" fill="#259156"/>
<path d="M20.0929 19.0883H22.8254V21.8208H20.0929V19.0883Z" fill="#259156"/>
<path d="M16.1106 26.2267H18.8431V28.9592H16.1106V26.2267Z" fill="#259156"/>
<path d="M16.1106 22.6469H18.8431V25.3794H16.1106V22.6469Z" fill="#259156"/>
</svg>
