<svg width="43" height="43" viewBox="0 0 43 43" fill="none" xmlns="http://www.w3.org/2000/svg">
<circle cx="21.5" cy="21.5" r="21.5" fill="#F6EEFF"/>
<path d="M28.3625 14.6376C26.4143 12.6718 23.22 12.6718 21.2718 14.6376L19.0078 16.8841C18.9551 16.9367 18.9025 16.9894 18.8498 17.042C19.938 16.7261 21.0963 16.7437 22.1669 17.0947L22.9392 16.3225C23.9571 15.3045 25.642 15.3045 26.66 16.3225C27.678 17.3404 27.678 19.0253 26.66 20.0433L25.8878 20.8155L25.3086 21.3947L24.4135 22.2898C24.0274 22.6759 23.5359 22.9216 23.0094 23.0094C22.7637 23.0445 22.518 23.062 22.2722 23.0269C21.6931 22.9743 21.1314 22.711 20.6927 22.2722C20.2539 21.8335 20.0082 21.2718 19.938 20.6927C19.622 20.7804 19.3237 20.9384 19.078 21.1841L17.9196 22.3425C18.1653 22.9392 18.5339 23.4833 19.0078 23.9571C19.4816 24.431 20.0433 24.7996 20.6225 25.0453C20.8682 25.1506 21.1314 25.2384 21.3947 25.291C22.5531 25.5718 23.7992 25.4314 24.8874 24.8522C25.2735 24.6592 25.6245 24.3959 25.958 24.0976C26.0106 24.0449 26.0633 23.9922 26.1159 23.9396L28.3625 21.6931C30.3282 19.78 30.3282 16.5857 28.3625 14.6376ZM20.8155 25.9053L20.0433 26.6776C19.0253 27.6955 17.3404 27.6955 16.3225 26.6776C15.3045 25.6596 15.3045 23.9747 16.3225 22.9567L17.0947 22.1845L17.6739 21.6053L18.569 20.7102C18.9551 20.3241 19.4465 20.0784 19.9731 19.9906C20.2188 19.9555 20.4645 19.938 20.7102 19.9731C21.2894 20.0257 21.851 20.289 22.2898 20.7278C22.7286 21.1665 22.9743 21.7282 23.0445 22.3074C23.3604 22.2196 23.6588 22.0616 23.9045 21.8159L25.0629 20.6576C24.8171 20.0608 24.4486 19.5167 23.9747 19.0429C23.5008 18.569 22.9392 18.2004 22.36 17.9547C22.1143 17.8494 21.851 17.7616 21.5878 17.709C20.4294 17.4282 19.1833 17.5861 18.0951 18.1478C17.709 18.3408 17.358 18.6041 17.0245 18.9025C16.9718 18.9551 16.9192 19.0078 16.8665 19.0604L14.6376 21.2718C12.6718 23.22 12.6718 26.4143 14.6376 28.3625C16.6033 30.3282 19.78 30.3282 21.7457 28.3625L23.9922 26.1159C24.0449 26.0633 24.0976 26.0106 24.1502 25.958C23.062 26.2563 21.8861 26.2563 20.8155 25.9053Z" fill="#450D84"/>
</svg>
