<svg width="49" height="49" viewBox="0 0 49 49" fill="none" xmlns="http://www.w3.org/2000/svg">
<circle cx="24.5" cy="24.5" r="24.5" fill="#E7E7FF"/>
<path d="M35.2922 22.9535C34.8969 20.5418 33.6713 19.3558 32.762 18.8023L32.6434 18.7628C32.6434 18.7628 30.7457 18.0907 29.2038 21.5697C30.4294 22.5977 30.6666 24.9302 30.1922 26.8279C29.5597 29.3186 26.7131 30.7418 26.7131 30.7418L25.8829 29.8721L23.3922 36H30.3503L29.4806 34.8535C29.4806 34.8535 32.248 32.9953 33.4341 31.4535C34.6992 29.8721 35.9643 26.986 35.2922 22.9535Z" fill="#070792"/>
<path d="M19.6364 29.0418C14.4969 22.5186 22.1666 19.079 22.1666 19.079L22.8387 20.0674L25.2504 13.9H18.2922L19.2411 15.0465C17.976 15.5604 16.1969 17.3395 16.1969 17.3395C16.1969 17.3395 12.5992 20.9767 13.1922 26.1953C13.7853 31.4139 16.948 31.7697 16.948 31.7697L23.1946 31.6116C21.5736 31.493 19.6364 29.0418 19.6364 29.0418Z" fill="#070792"/>
<path d="M25.5271 18.3279C23.748 18.486 22.9178 21.0953 22.9178 21.0953C21.6527 25.2069 20.6643 27.3814 20.1899 28.3697L20.1108 28.5279C21.2178 30.1093 22.4434 30.8604 23.748 31.2953C24.6178 31.3744 25.962 27.9348 25.962 27.9348C27.069 25.0488 27.6225 23.7442 28.6108 21.2535C28.769 20.8581 29.5597 18.486 31.2992 18.3279C30.1132 18.2488 26.9504 18.1697 25.5271 18.3279Z" fill="#070792"/>
</svg>
