<?xml version="1.0" encoding="utf-8"?>
<!-- Generator: Adobe Illustrator 23.0.1, SVG Export Plug-In . SVG Version: 6.00 Build 0)  -->
<svg version="1.1" id="Layer_1" xmlns="http://www.w3.org/2000/svg" xmlns:xlink="http://www.w3.org/1999/xlink" x="0px" y="0px"
	 viewBox="0 0 92 92" style="enable-background:new 0 0 92 92;" xml:space="preserve">
<style type="text/css">
	.st0{fill:#F5F7FF;}
	.st1{fill:#380874;}
	.st2{fill:#3BB54A;}
	.st3{fill:#CAF9DF;}
	.st4{fill:none;stroke:#36BF73;stroke-linecap:round;stroke-linejoin:round;stroke-miterlimit:10;}
</style>
<circle class="st0" cx="46" cy="46" r="46"/>
<path class="st1" d="M26.5,40.9v24h34.3v-24H26.5z M45.3,54.3v4.5h-3.4v-4.5c-1.2-0.6-2-1.8-2-3.2c0-2,1.6-3.7,3.7-3.7
	c2,0,3.7,1.6,3.7,3.7C47.3,52.5,46.5,53.7,45.3,54.3z"/>
<path class="st2" d="M36.8,37.5l0-5.4c0-1.8,0.7-3.6,2-4.8c1.3-1.3,3-2,4.8-2s3.6,0.7,4.8,2c1.3,1.3,2,3,2,4.8v5.4h5.1v-5.4
	c0-6.6-5.3-11.9-11.9-11.9s-11.9,5.3-11.9,11.9v5.4H36.8z"/>
<circle class="st3" cx="61" cy="61.4" r="9.4"/>
<path class="st4" d="M65.3,58.4l-7.5,5.7L56,61.2"/>
</svg>
