<svg width="43" height="43" viewBox="0 0 43 43" fill="none" xmlns="http://www.w3.org/2000/svg">
<circle cx="21.5" cy="21.5" r="21.5" fill="#FFF0C8"/>
<path d="M27.0286 11.4081H30.7143V15.0939H27.0286V11.4081Z" fill="#E4AA0F"/>
<path d="M23.3429 15.0938H27.0286V18.7795H23.3429V15.0938Z" fill="#E4AA0F"/>
<path d="M19.6572 11.4081H23.3429V15.0939H19.6572V11.4081Z" fill="#E4AA0F"/>
<path d="M15.9714 15.0938H19.6571V18.7795H15.9714V15.0938Z" fill="#E4AA0F"/>
<path d="M12.2857 11.4081H15.9714V15.0939H12.2857V11.4081Z" fill="#E4AA0F"/>
<path d="M27.0286 18.7796H30.7143V22.4653H27.0286V18.7796Z" fill="#E4AA0F"/>
<path d="M23.3429 22.4653H27.0286V26.151H23.3429V22.4653Z" fill="#E4AA0F"/>
<path d="M19.6572 18.7796H23.3429V22.4653H19.6572V18.7796Z" fill="#E4AA0F"/>
<path d="M15.9714 22.4653H19.6571V26.151H15.9714V22.4653Z" fill="#E4AA0F"/>
<path d="M12.2857 18.7796H15.9714V22.4653H12.2857V18.7796Z" fill="#E4AA0F"/>
<path d="M27.0286 26.1511H30.7143V29.8368H27.0286V26.1511Z" fill="#E4AA0F"/>
<path d="M19.6572 26.1511H23.3429V29.8368H19.6572V26.1511Z" fill="#E4AA0F"/>
<path d="M12.2857 26.1511H15.9714V29.8368H12.2857V26.1511Z" fill="#E4AA0F"/>
</svg>
