<svg width="43" height="43" viewBox="0 0 43 43" fill="none" xmlns="http://www.w3.org/2000/svg">
<circle cx="21.5" cy="21.5" r="21.5" fill="#FFE6E6"/>
<path d="M22.7857 14.3568H20.2571C19.1428 16.2101 17.3428 17.5581 15.2857 18.1899V19.5378C15.2857 23.6658 17.7286 27.499 21.5 29.3102C25.3143 27.499 27.7143 23.6658 27.7143 19.5378V18.1899C25.6571 17.5581 23.8571 16.2101 22.7857 14.3568Z" fill="#DF6A65"/>
<path d="M30.2857 15.6204C27.7571 15.6204 25.5714 14.0619 24.8 11.703C24.7571 11.5345 24.5857 11.4081 24.4143 11.4081H18.5857C18.4143 11.4081 18.2428 11.5345 18.2 11.703C17.4286 14.0619 15.2428 15.6204 12.7143 15.6204C12.5 15.6204 12.2857 15.7889 12.2857 16.0416V19.5378C12.2857 25.2243 15.9286 30.4054 21.3714 32.4272C21.4143 32.4272 21.4571 32.4694 21.5428 32.4694C21.6286 32.4694 21.6286 32.4694 21.6714 32.4272C27.0714 30.4054 30.7143 25.2243 30.7143 19.5378V16.0416C30.7143 15.7889 30.5428 15.6204 30.2857 15.6204ZM28.5714 19.5378C28.5714 24.087 25.8714 28.215 21.6714 30.1526C21.6286 30.1948 21.5428 30.1948 21.5 30.1948C21.4571 30.1948 21.3714 30.1948 21.3286 30.1526C17.1286 28.215 14.4286 24.087 14.4286 19.5378V17.895C14.4286 17.6844 14.5571 17.5159 14.7286 17.4738C16.7857 16.9262 18.5857 15.5783 19.6143 13.7249C19.7 13.5985 19.8286 13.5143 20 13.5143H23C23.1714 13.5143 23.3 13.5985 23.3857 13.7249C24.4143 15.5783 26.2143 16.9262 28.2714 17.4738C28.4428 17.5159 28.5714 17.6844 28.5714 17.895V19.5378Z" fill="#DF6A65"/>
</svg>
