<svg width="49" height="49" viewBox="0 0 49 49" fill="none" xmlns="http://www.w3.org/2000/svg">
<circle cx="24.5" cy="24.5" r="24.5" fill="#FDDDDC"/>
<path d="M25 14C18.9271 14 14 18.9271 14 25C14 31.0729 18.9271 36 25 36C31.0729 36 36 31.0729 36 25C36 18.9271 31.0729 14 25 14ZM20.3021 24.8396L24.8396 20.3021C24.9083 20.2333 24.9771 20.2333 25 20.2333C25.0229 20.2333 25.1146 20.2333 25.1604 20.3021L29.6979 24.8396C29.7667 24.9083 29.7667 24.9771 29.7667 25C29.7667 25.0229 29.7667 25.1146 29.6979 25.1604L25.1604 29.6979C25.0917 29.7667 25.0229 29.7667 25 29.7667C24.9771 29.7667 24.8854 29.7667 24.8396 29.6979L20.3021 25.1604C20.2333 25.0917 20.2333 25.0229 20.2333 25C20.2333 24.9771 20.2333 24.8854 20.3021 24.8396Z" fill="#955C5A"/>
</svg>
