<?xml version="1.0" encoding="utf-8"?>
<!-- Generator: Adobe Illustrator 23.0.1, SVG Export Plug-In . SVG Version: 6.00 Build 0)  -->
<svg version="1.1" id="Layer_1" xmlns="http://www.w3.org/2000/svg" xmlns:xlink="http://www.w3.org/1999/xlink" x="0px" y="0px"
	 viewBox="0 0 92 92" style="enable-background:new 0 0 92 92;" xml:space="preserve">
<style type="text/css">
	.st0{fill:#F5F7FF;}
	.st1{fill:#380874;}
	.st2{fill:#3BB54A;}
	.st3{fill:#CAF9DF;}
	.st4{fill:none;stroke:#36BF73;stroke-linecap:round;stroke-linejoin:round;stroke-miterlimit:10;}
</style>
<circle class="st0" cx="46" cy="46" r="46"/>
<path class="st1" d="M66.4,56.7c-4.5,1.9-20.1,7.5-27.1,5.6c-3.2-0.9-8.1-2.9-12.4-5.4c-0.7-0.4-1.5-0.4-2.2,0l-3,1.5
	c-0.8,0.4-1.9,0.1-2.4-0.8l-5-10.7c-0.5-0.9,0-1.9,0.9-2.4c1.9-0.8,4.9-2.2,7.5-3.2c3.9-1.6,8.1-2.5,11.1-2.7
	c0.9,8.1,7.8,14.4,16.1,14.4c3.5,0,6.7-1.1,9.3-3c2.1-0.1,3.9-0.2,5.2-0.3C69.1,48.9,70.8,54.9,66.4,56.7z"/>
<path class="st2" d="M64.4,36.6c0-8-6.6-14.6-14.6-14.6c-8,0-14.6,6.6-14.6,14.6s6.6,14.6,14.6,14.6C57.9,51.2,64.4,44.6,64.4,36.6z
	 M51.1,43.8v1.9c0,0.2-0.2,0.4-0.4,0.4h-1.8c-0.2,0-0.4-0.2-0.4-0.4v-1.8c-1.9-0.2-3.3-1.5-3.5-3.3c0-0.2,0.2-0.4,0.4-0.4h1.8
	c0.2,0,0.3,0.1,0.3,0.2c0.2,0.5,0.6,1,1.2,1h1.5c0.9,0,1.8-0.7,1.9-1.6c0.1-1.1-0.7-2-1.8-2h-1.2c-2.2,0-4.2-1.6-4.5-3.9
	c-0.2-2.3,1.5-4.4,3.7-4.6v-1.8c0-0.2,0.2-0.4,0.4-0.4h1.8c0.2,0,0.4,0.2,0.4,0.4v1.8c1.9,0.1,3.3,1.5,3.5,3.3
	c0,0.2-0.2,0.4-0.4,0.4h-1.8C52.2,33,52,33,52,32.8c-0.2-0.5-0.6-1-1.2-1h-1.5c-0.9,0-1.8,0.7-1.9,1.6c-0.1,1.1,0.7,2,1.8,2h1.4
	c2.5,0,4.5,2.2,4.2,4.7C54.6,42,53,43.5,51.1,43.8z"/>
<circle class="st3" cx="61.4" cy="55.4" r="9.4"/>
<path class="st4" d="M65.7,52.4l-7.5,5.7l-1.9-2.9"/>
</svg>
