<svg width="781" height="792" viewBox="0 0 781 792" fill="none" xmlns="http://www.w3.org/2000/svg">
<path d="M652.016 31.9006C603.281 67.266 554.689 102.631 505.954 137.853C459.806 171.35 413.658 204.846 367.511 238.343C322.513 271.121 277.372 303.754 232.375 336.532C214.261 349.615 196.147 362.841 178.033 376.067C173.432 379.373 171.707 389.724 171.707 389.724C171.707 389.724 178.895 403.957 187.952 403.957H300.23L330.995 373.335C330.852 373.335 330.564 373.335 330.42 373.335C299.799 373.335 269.178 373.335 238.413 373.335H235.25L234.962 372.473C353.566 286.359 472.17 200.246 590.773 114.276L672.143 33.0507C667.111 27.8752 658.773 27.0127 652.016 31.9006Z" fill="#702FFF"/>
<g filter="url(#filter0_f)">
<path d="M390.657 774C596.296 774 763 607.296 763 401.656C763 196.017 596.296 29.3129 390.657 29.3129C185.017 29.3129 18.313 196.017 18.313 401.656C18.313 607.296 185.017 774 390.657 774Z" fill="#E1E1F9" fill-opacity="0.34"/>
</g>
<path d="M390.657 745.248C596.296 745.248 763 578.544 763 372.904C763 167.264 596.296 0.560425 390.657 0.560425C185.017 0.560425 18.313 167.264 18.313 372.904C18.313 578.544 185.017 745.248 390.657 745.248Z" fill="white"/>
<path d="M600.377 222.332C599.85 221.56 599.312 220.764 598.76 220.003C516.436 103.146 354.024 75.8639 236.02 159.064L386.709 372.98L600.377 222.332Z" fill="#E4E7FF"/>
<path d="M385.645 372.337L646.879 360.676C644.8 313.494 629.909 266.3 601.252 224.478C600.34 223.158 599.437 221.862 598.501 220.552L385.645 372.337Z" fill="#E4E7FF"/>
<path d="M386.709 372.98L527.667 593.421C529.053 592.539 530.43 591.632 531.806 590.726C610.81 538.047 651.872 449.783 647.968 361.31L386.709 372.98Z" fill="#BDC8EE"/>
<path d="M349.022 365.059L207.61 148.716C106.774 214.678 66.5103 338.509 101.916 448.006L348.302 367.135C349.168 366.849 349.516 365.816 349.022 365.059Z" fill="#F3F5FF"/>
<path d="M386.454 371.906L140.583 459.544C147.929 481.221 156.88 498.319 170.317 518.21C233.006 611.015 344.755 650.802 447.536 626.364L386.454 371.906Z" fill="#F3F5FF"/>
<path d="M445.79 627.893C474.234 621.378 502.057 609.958 528.011 593.37L387.276 372.785L445.79 627.893Z" fill="url(#paint0_linear)"/>
<g opacity="0.61">
<path opacity="0.61" d="M386.126 625.587C385.932 625.663 385.695 625.701 385.473 625.704C346.409 625.072 307.473 615.264 272.826 597.327C237.052 578.799 205.777 551.472 182.41 518.311C180.312 515.332 178.268 512.276 176.325 509.263C175.812 508.458 176.034 507.391 176.838 506.878C177.643 506.365 178.709 506.588 179.223 507.393C181.156 510.381 183.181 513.389 185.236 516.329C208.291 549.053 239.109 576.001 274.416 594.265C308.571 611.948 346.98 621.627 385.508 622.248C386.465 622.262 387.225 623.054 387.211 624.012C387.217 624.737 386.755 625.339 386.126 625.587Z" fill="white"/>
</g>
<g opacity="0.61">
<path opacity="0.61" d="M562.117 557.389C561.463 557.647 560.705 557.498 560.215 556.963C559.551 556.274 559.59 555.167 560.279 554.503C610.938 506.957 639.579 439.601 638.807 369.708C638.797 368.761 639.569 367.953 640.516 367.943C641.463 367.933 642.271 368.706 642.282 369.654C643.039 440.503 614.012 508.795 562.64 557.015C562.494 557.212 562.31 557.313 562.117 557.389Z" fill="white"/>
</g>
<g opacity="0.61">
<path opacity="0.61" d="M520.984 159.569C520.5 159.76 519.93 159.733 519.444 159.421C475.258 132.399 424.517 119.885 372.708 123.242C371.756 123.31 370.933 122.571 370.865 121.618C370.797 120.665 371.535 119.843 372.487 119.775C425.002 116.363 476.452 129.045 521.269 156.462C522.079 156.954 522.335 158.029 521.843 158.839C521.624 159.205 521.323 159.435 520.984 159.569Z" fill="white"/>
</g>
<g opacity="0.74">
<path opacity="0.74" d="M233.654 394.74C233.63 394.75 233.582 394.769 233.558 394.778L106.843 435.539L106.422 433.69C101.393 411.435 98.7369 389.028 98.068 363.15C98.0483 362.178 98.8055 361.403 99.7672 361.36C100.738 361.341 101.513 362.099 101.557 363.061C102.215 387.992 104.715 409.649 109.41 431.056L232.505 391.471C233.42 391.166 234.403 391.674 234.684 392.599C234.97 393.466 234.501 394.406 233.654 394.74Z" fill="white"/>
</g>
<g opacity="0.74">
<path opacity="0.74" d="M333.044 362.767C332.996 362.786 332.923 362.815 332.875 362.834L307.042 371.146C306.127 371.451 305.144 370.943 304.863 370.018C304.558 369.103 305.089 368.109 305.989 367.839L330.981 359.803L256.299 247.293C255.761 246.497 255.984 245.43 256.779 244.893C257.573 244.355 258.64 244.578 259.178 245.374L334.32 358.626C334.804 359.358 334.911 360.268 334.627 361.107C334.372 361.88 333.795 362.471 333.044 362.767Z" fill="white"/>
</g>
<path d="M301.995 533.914H295.196V546.806H283.629V533.914H259.833V523.625L281.93 487.261H295.196V524.699H301.995V533.914ZM283.629 524.699V498.831L268.58 524.699H283.629Z" fill="#E4E7F5"/>
<path d="M319.572 517.426C319.572 524.313 320.139 529.589 321.272 533.253C322.405 536.889 324.727 538.707 328.237 538.707C331.747 538.707 334.041 536.889 335.119 533.253C336.224 529.589 336.777 524.313 336.777 517.426C336.777 510.209 336.224 504.864 335.119 501.393C334.041 497.922 331.747 496.187 328.237 496.187C324.727 496.187 322.405 497.922 321.272 501.393C320.139 504.864 319.572 510.209 319.572 517.426ZM328.237 486.476C335.893 486.476 341.254 489.162 344.322 494.534C347.418 499.906 348.965 507.537 348.965 517.426C348.965 527.316 347.418 534.933 344.322 540.277C341.254 545.622 335.893 548.294 328.237 548.294C320.581 548.294 315.206 545.622 312.11 540.277C309.042 534.933 307.508 527.316 307.508 517.426C307.508 507.537 309.042 499.906 312.11 494.534C315.206 489.162 320.581 486.476 328.237 486.476Z" fill="#E4E7F5"/>
<path d="M676.168 39.6637C675.449 36.9322 674.011 34.632 672.142 32.9069L590.773 114.132C591.061 113.989 591.204 113.845 591.492 113.701C591.636 113.845 591.923 113.989 592.067 114.132C591.636 114.851 591.204 115.57 590.773 116.289C559.577 159.705 528.38 203.121 497.184 246.393C465.413 290.672 433.641 334.807 401.87 378.942C398.132 384.117 397.413 389.724 400.288 395.475C403.164 401.369 408.339 403.957 414.808 403.957H509.691C509.835 404.244 509.979 404.532 510.123 404.819C400.576 484.463 290.886 563.964 181.339 643.464C172.138 650.221 162.937 656.834 153.737 663.591C153.593 663.447 153.305 663.303 153.162 663.159C153.593 662.441 154.024 661.578 154.599 660.859C154.168 660.428 154.168 660.428 152.73 658.99C146.692 653.527 137.348 645.62 129.01 637.426C109.314 664.597 110.752 669.197 91.0564 696.656C84.4434 705.857 77.8303 714.914 71.361 724.115C64.6042 733.747 69.7796 745.966 81.4244 748.123C81.9994 748.267 82.4307 748.554 83.0057 748.698H84.0121C87.8937 747.835 91.4877 746.398 94.7942 743.954C105.576 736.047 116.359 728.284 127.141 720.377C188.815 675.667 250.345 630.957 312.019 586.103C355.147 554.763 398.276 523.567 441.261 492.226C477.201 466.062 513.285 439.897 549.37 413.876C555.408 409.563 561.446 405.107 567.34 400.794C572.803 396.768 574.816 390.012 572.947 383.83C570.79 377.361 565.04 373.192 558.139 373.192C521.336 373.192 484.533 373.192 447.586 373.192C446.58 373.192 445.574 373.048 443.992 373.048C445.142 371.466 445.861 370.316 446.58 369.166C469.007 337.97 491.434 306.773 513.86 275.577C559.002 212.753 604.143 150.073 649.284 87.2489C657.479 75.8917 665.529 64.5345 673.724 53.3211C676.599 49.0082 677.462 44.5516 676.168 39.6637Z" fill="#702FFF"/>
<path d="M346.824 220.627C346.824 222.858 347.184 224.704 347.904 226.166C349.241 228.858 351.67 230.205 355.192 230.205C357.352 230.205 359.229 229.474 360.822 228.012C362.442 226.525 363.252 224.396 363.252 221.627C363.252 217.96 361.761 215.511 358.779 214.28C357.082 213.588 354.408 213.242 350.758 213.242V205.395C354.331 205.344 356.825 204.997 358.239 204.356C360.681 203.279 361.902 201.1 361.902 197.817C361.902 195.689 361.272 193.958 360.013 192.625C358.779 191.291 357.03 190.624 354.768 190.624C352.172 190.624 350.256 191.445 349.022 193.086C347.814 194.727 347.236 196.92 347.287 199.664H337.029C337.132 196.894 337.608 194.266 338.456 191.778C339.356 189.599 340.77 187.586 342.698 185.739C344.138 184.432 345.847 183.431 347.827 182.739C349.806 182.047 352.236 181.701 355.115 181.701C360.463 181.701 364.769 183.085 368.034 185.855C371.324 188.599 372.97 192.291 372.97 196.933C372.97 200.215 371.993 202.984 370.039 205.241C368.805 206.651 367.519 207.613 366.183 208.126C367.185 208.126 368.625 208.985 370.502 210.703C373.304 213.293 374.705 216.832 374.705 221.319C374.705 226.038 373.06 230.192 369.769 233.782C366.504 237.346 361.658 239.128 355.231 239.128C347.313 239.128 341.811 236.551 338.726 231.397C337.107 228.653 336.207 225.063 336.027 220.627H346.824Z" fill="#C7CAE7"/>
<path d="M390.94 222.819C391.377 225.204 392.212 227.05 393.446 228.358C394.68 229.64 396.48 230.282 398.845 230.282C401.57 230.282 403.64 229.333 405.054 227.435C406.493 225.512 407.213 223.101 407.213 220.204C407.213 217.357 406.545 214.96 405.208 213.011C403.871 211.036 401.789 210.049 398.961 210.049C397.624 210.049 396.467 210.216 395.49 210.549C393.768 211.165 392.469 212.306 391.595 213.972L381.723 213.511L385.657 182.701H416.468V192.009H393.6L391.595 204.202C393.292 203.1 394.616 202.369 395.567 202.01C397.161 201.42 399.102 201.125 401.39 201.125C406.018 201.125 410.054 202.677 413.499 205.779C416.944 208.882 418.666 213.396 418.666 219.319C418.666 224.473 417.008 229.076 413.691 233.128C410.375 237.18 405.413 239.205 398.806 239.205C393.485 239.205 389.114 237.782 385.695 234.936C382.276 232.089 380.374 228.051 379.988 222.819H390.94Z" fill="#C7CAE7"/>
<path d="M438.024 202.664C439.721 202.664 441.161 202.074 442.343 200.894C443.552 199.689 444.156 198.24 444.156 196.548C444.156 194.856 443.552 193.419 442.343 192.24C441.161 191.035 439.721 190.432 438.024 190.432C436.328 190.432 434.875 191.035 433.667 192.24C432.484 193.419 431.893 194.856 431.893 196.548C431.893 198.24 432.484 199.689 433.667 200.894C434.875 202.074 436.328 202.664 438.024 202.664ZM452.37 196.548C452.37 200.497 450.968 203.869 448.166 206.664C445.39 209.459 442.009 210.857 438.024 210.857C434.065 210.857 430.685 209.459 427.882 206.664C425.08 203.869 423.679 200.497 423.679 196.548C423.679 192.599 425.08 189.227 427.882 186.432C430.685 183.637 434.065 182.239 438.024 182.239C441.983 182.239 445.364 183.637 448.166 186.432C450.968 189.227 452.37 192.599 452.37 196.548ZM481.638 224.55C481.638 222.858 481.034 221.422 479.826 220.242C478.643 219.037 477.204 218.434 475.507 218.434C473.81 218.434 472.358 219.037 471.149 220.242C469.967 221.422 469.376 222.858 469.376 224.55C469.376 226.243 469.967 227.692 471.149 228.897C472.358 230.076 473.81 230.666 475.507 230.666C477.204 230.666 478.643 230.076 479.826 228.897C481.034 227.692 481.638 226.243 481.638 224.55ZM489.852 224.55C489.852 228.499 488.451 231.871 485.649 234.667C482.847 237.462 479.466 238.859 475.507 238.859C471.548 238.859 468.167 237.462 465.365 234.667C462.563 231.871 461.162 228.499 461.162 224.55C461.162 220.576 462.563 217.204 465.365 214.434C468.167 211.639 471.548 210.241 475.507 210.241C479.466 210.241 482.847 211.639 485.649 214.434C488.451 217.229 489.852 220.601 489.852 224.55ZM469.376 181.97H475.237L444.079 239.205H438.101L469.376 181.97Z" fill="#C7CAE7"/>
<mask id="mask0" mask-type="alpha" maskUnits="userSpaceOnUse" x="18" y="0" width="746" height="746">
<path d="M390.657 745.248C596.296 745.248 763 578.544 763 372.904C763 167.264 596.296 0.560425 390.657 0.560425C185.017 0.560425 18.313 167.264 18.313 372.904C18.313 578.544 185.017 745.248 390.657 745.248Z" fill="white"/>
</mask>
<g mask="url(#mask0)">
<path d="M629.73 546.018C630.554 550.375 632.094 763.918 608.331 859.34C607.943 860.91 608.712 862.533 610.195 863.128C613.695 864.613 620.497 866.753 628.724 867.086C631.287 867.195 633.578 865.562 634.306 863.126C641.067 840.997 673.385 730.091 678.564 623.919C684.326 505.245 678.605 619.86 678.605 619.86L676.667 546.456L629.73 546.018Z" fill="url(#paint1_linear)"/>
<path d="M719.897 553.524C737.397 666.347 713 831.876 705.018 864.221C704.543 866.204 702.914 867.72 700.884 868.03C697.446 868.575 691.817 868.973 686.292 867.301C684.396 866.744 683.049 864.991 682.986 863.002C682.22 836.779 685.727 675.758 669.009 611.935C668.173 608.696 666.217 605.86 663.508 603.886L630.049 579.566L627.882 540.739L719.897 553.524Z" fill="url(#paint2_linear)"/>
<path d="M603.311 338.846C659.189 338.506 720.646 354.747 720.646 354.747C736.318 452.187 721.4 564.265 721.4 564.265C678.028 575.169 629.459 556.368 629.459 556.368C622.679 515.631 590.311 400.875 590.311 400.875C563.052 397.2 540.636 389.103 522.257 378.479C536.568 362.225 543.398 341.423 546.418 329.154C566.123 335.484 586.063 338.96 603.311 338.846Z" fill="url(#paint3_linear)"/>
<path d="M439.151 254.797C444.718 248.228 451.634 251.446 451.634 251.446C459.508 286.314 502.311 314.912 546.46 329.154C543.439 341.465 536.568 362.225 522.299 378.479C449.194 336.36 439.151 254.797 439.151 254.797Z" fill="url(#paint4_linear)"/>
<path d="M440.456 256.508C439.858 258.325 446.488 261.167 450.492 253.753C450.653 250.152 453.002 234.853 450.881 231.891C439.626 216.246 417.784 196.517 417.784 196.517C414.024 200.165 417.048 203.798 417.048 203.798L427.644 215.088C425.37 219.124 422.605 222.533 421.273 227.406C420.284 231.123 420.823 235.063 422.649 238.477C424.475 241.892 426.994 246.307 429.399 249.811C433.922 256.4 440.456 256.508 440.456 256.508Z" fill="url(#paint5_linear)"/>
<path d="M432.244 222.383L441.919 230.764L444.895 239.036L436.112 248.596C436.112 248.596 433.343 232.209 431.229 228.626C429.073 225.125 430.207 223.397 432.244 222.383Z" fill="url(#paint6_linear)"/>
<path d="M698.671 408.691L720.646 354.747C720.646 354.747 772.472 390.768 780.572 435.867C770.722 436.512 752.748 438.896 735.082 447.578C731.454 426.296 698.671 408.691 698.671 408.691Z" fill="url(#paint7_linear)"/>
<path d="M652.537 459.2C652.537 459.2 710.755 492.967 730.812 464.845C734.966 459.007 736.018 453.178 735.083 447.619C752.748 438.937 770.681 436.553 780.572 435.908C783.038 449.517 781.485 463.913 773.396 478.408C738.135 541.452 644.657 473.572 644.657 473.572L652.537 459.2Z" fill="url(#paint8_linear)"/>
<path d="M659.139 501.178L628.315 389.046C627.956 387.759 626.89 386.837 625.569 386.658C619.786 385.936 603.016 383.86 583.638 382.005C560.335 379.779 533.222 377.928 516.998 379.088C514.68 379.271 513.291 381.7 514.262 383.781C523.293 402.551 560.397 478.841 579.125 503.88C579.737 504.715 580.724 505.222 581.759 505.191L655.954 505.245C658.145 505.35 659.738 503.296 659.139 501.178Z" fill="url(#paint9_linear)"/>
<path d="M580.469 372.323L557.351 368.236C556.112 368.016 555.107 369.207 555.468 370.37L557.671 377.35C557.871 377.973 558.405 378.393 559.024 378.482L581.283 381.691C582.44 381.869 583.402 380.802 583.124 379.681L581.78 373.579C581.662 372.957 581.13 372.454 580.469 372.323Z" fill="url(#paint10_linear)"/>
<path d="M597.636 392.17L595.836 382.171C595.64 381.175 594.82 380.421 593.829 380.287L547.065 375.046C545.495 374.865 544.199 376.301 544.555 377.837L547.406 390.29C547.644 391.286 548.505 391.999 549.496 392.092L595.21 394.878C596.698 394.935 597.87 393.622 597.636 392.17Z" fill="url(#paint11_linear)"/>
<path d="M651.682 474.1C651.682 474.1 656.336 455.801 654.583 449.281C652.871 442.762 649.441 434.361 637.843 436.106C626.204 437.851 612.507 442.598 612.507 442.598C612.507 442.598 613.123 451.094 621.959 448.451L616.458 452.619C616.458 452.619 617.174 459.418 624.655 455.85L619.511 461.43C619.511 461.43 622.638 467.053 628.175 463.506C633.67 460.001 636.152 476.177 651.682 474.1Z" fill="url(#paint12_linear)"/>
<path d="M660.346 294.04L677.602 345.693C677.883 346.566 677.543 347.473 676.752 347.921C671.887 350.563 654.356 358.128 633.443 344.579C631.266 343.149 629.8 340.898 629.496 338.286L624.203 293.671L660.346 294.04V294.04Z" fill="url(#paint13_linear)"/>
<path d="M622.167 245.983C622.167 245.983 602.272 282.554 604.643 297.446C606.972 312.337 631.175 311.508 652.43 299.674L667.6 260.113L622.167 245.983Z" fill="url(#paint14_linear)"/>
<path d="M651.678 280.16C650.814 279.779 650.535 278.699 651.04 277.917C652.636 275.532 655.622 270.676 656.575 266.42C656.575 266.42 660.113 264.22 647.696 261.111C635.279 258.002 616.8 253.175 612.979 242.534C609.281 232.143 619.554 206.282 635.263 227.149C635.876 227.942 637.033 227.954 637.662 227.174C640.302 223.805 647.239 216.794 656.748 221.198C665.639 225.306 666.565 231.859 666.407 235.17C666.356 236.122 667.216 236.918 668.169 236.72C672.686 235.897 683.528 235.262 688.459 246.453C692.543 255.647 689.76 260.795 687.294 263.338C686.5 264.158 686.817 265.528 687.93 265.87C690.898 266.812 694.677 269.377 694.234 276.33C693.598 285.931 682.896 284.993 679.84 284.507C679.345 284.419 678.847 284.579 678.471 284.948C675.836 287.82 663.883 300.039 651.089 301.399C649.971 301.512 649.114 300.427 649.497 299.354L655.203 283.302C655.459 282.56 655.136 281.728 654.395 281.389L651.678 280.16Z" fill="url(#paint15_linear)"/>
<path d="M649.422 282.415C649.422 282.415 663.415 272.991 664.366 281.077C665.318 289.121 651.717 292.585 645.048 289.535L649.422 282.415Z" fill="url(#paint16_linear)"/>
</g>
<defs>
<filter id="filter0_f" x="0.312988" y="11.3129" width="780.687" height="780.687" filterUnits="userSpaceOnUse" color-interpolation-filters="sRGB">
<feFlood flood-opacity="0" result="BackgroundImageFix"/>
<feBlend mode="normal" in="SourceGraphic" in2="BackgroundImageFix" result="shape"/>
<feGaussianBlur stdDeviation="9" result="effect1_foregroundBlur"/>
</filter>
<linearGradient id="paint0_linear" x1="476.168" y1="437.154" x2="636.941" y2="39.7443" gradientUnits="userSpaceOnUse">
<stop stop-color="#E4E7FF"/>
<stop offset="1" stop-color="#4042E2"/>
</linearGradient>
<linearGradient id="paint1_linear" x1="679.733" y1="707.094" x2="609.815" y2="706.379" gradientUnits="userSpaceOnUse">
<stop stop-color="#09005D"/>
<stop offset="1" stop-color="#1A0F91"/>
</linearGradient>
<linearGradient id="paint2_linear" x1="725.503" y1="705.27" x2="626.241" y2="704.256" gradientUnits="userSpaceOnUse">
<stop stop-color="#09005D"/>
<stop offset="1" stop-color="#1A0F91"/>
</linearGradient>
<linearGradient id="paint3_linear" x1="496.482" y1="650.044" x2="694.365" y2="358.038" gradientUnits="userSpaceOnUse">
<stop stop-color="#FF928E"/>
<stop offset="1" stop-color="#FE7062"/>
</linearGradient>
<linearGradient id="paint4_linear" x1="546.568" y1="315.191" x2="438.538" y2="314.087" gradientUnits="userSpaceOnUse">
<stop stop-color="#FEBBBA"/>
<stop offset="1" stop-color="#FF928E"/>
</linearGradient>
<linearGradient id="paint5_linear" x1="462.788" y1="296.2" x2="533.754" y2="462.025" gradientUnits="userSpaceOnUse">
<stop stop-color="#FEBBBA"/>
<stop offset="1" stop-color="#FF928E"/>
</linearGradient>
<linearGradient id="paint6_linear" x1="439.804" y1="240.957" x2="409.975" y2="194.117" gradientUnits="userSpaceOnUse">
<stop stop-color="#FEBBBA"/>
<stop offset="1" stop-color="#FF928E"/>
</linearGradient>
<linearGradient id="paint7_linear" x1="552.688" y1="688.134" x2="750.571" y2="396.127" gradientUnits="userSpaceOnUse">
<stop stop-color="#FF928E"/>
<stop offset="1" stop-color="#FE7062"/>
</linearGradient>
<linearGradient id="paint8_linear" x1="781.394" y1="470.833" x2="644.681" y2="469.436" gradientUnits="userSpaceOnUse">
<stop stop-color="#FEBBBA"/>
<stop offset="1" stop-color="#FF928E"/>
</linearGradient>
<linearGradient id="paint9_linear" x1="604.315" y1="371.684" x2="525.747" y2="684.511" gradientUnits="userSpaceOnUse">
<stop stop-color="#09005D"/>
<stop offset="1" stop-color="#1A0F91"/>
</linearGradient>
<linearGradient id="paint10_linear" x1="557.754" y1="321.765" x2="573.086" y2="392.318" gradientUnits="userSpaceOnUse">
<stop stop-color="#4F52FF"/>
<stop offset="1" stop-color="#4042E2"/>
</linearGradient>
<linearGradient id="paint11_linear" x1="565.831" y1="351.38" x2="573.038" y2="397.459" gradientUnits="userSpaceOnUse">
<stop stop-color="#4F52FF"/>
<stop offset="1" stop-color="#4042E2"/>
</linearGradient>
<linearGradient id="paint12_linear" x1="654.978" y1="455.186" x2="612.386" y2="454.751" gradientUnits="userSpaceOnUse">
<stop stop-color="#FEBBBA"/>
<stop offset="1" stop-color="#FF928E"/>
</linearGradient>
<linearGradient id="paint13_linear" x1="670.254" y1="404.943" x2="636.948" y2="280.281" gradientUnits="userSpaceOnUse">
<stop stop-color="#FEBBBA"/>
<stop offset="1" stop-color="#FF928E"/>
</linearGradient>
<linearGradient id="paint14_linear" x1="611.358" y1="288.293" x2="671.201" y2="252.675" gradientUnits="userSpaceOnUse">
<stop stop-color="#FEBBBA"/>
<stop offset="1" stop-color="#FF928E"/>
</linearGradient>
<linearGradient id="paint15_linear" x1="703.008" y1="214.665" x2="625.533" y2="274.502" gradientUnits="userSpaceOnUse">
<stop stop-color="#09005D"/>
<stop offset="1" stop-color="#1A0F91"/>
</linearGradient>
<linearGradient id="paint16_linear" x1="626.829" y1="301.989" x2="680.671" y2="269.942" gradientUnits="userSpaceOnUse">
<stop stop-color="#FEBBBA"/>
<stop offset="1" stop-color="#FF928E"/>
</linearGradient>
</defs>
</svg>
