<svg width="49" height="50" viewBox="0 0 49 50" fill="none" xmlns="http://www.w3.org/2000/svg">
<ellipse cx="24.5" cy="25" rx="24.5" ry="25" fill="url(#paint0_linear)"/>
<path d="M27.5936 25.9029C27.5599 26.3078 27.3912 26.6789 27.0875 26.9488C25.9404 28.0959 22.9715 28.9393 19.4965 28.9393C16.0215 28.9393 13.0189 28.0959 11.8718 26.9488C11.5681 26.6789 11.3995 26.3078 11.3657 25.9029C11.3657 24.2161 15.0094 22.8665 19.4965 22.8665C23.9836 22.8665 27.5936 24.2161 27.5936 25.9029Z" stroke="white" stroke-width="1.2" stroke-miterlimit="10"/>
<path d="M27.5936 28.467C27.5936 30.1539 23.9499 31.5034 19.4628 31.5034C14.9757 31.5034 11.3657 30.1539 11.3657 28.467C11.3995 28.0622 11.5681 27.691 11.8718 27.4211C13.0189 28.5682 15.9878 29.4117 19.4965 29.4117C23.0053 29.4117 25.9742 28.602 27.1213 27.4211C27.3912 27.691 27.5936 28.0622 27.5936 28.467Z" stroke="white" stroke-width="1.2" stroke-miterlimit="10"/>
<path d="M27.5936 30.9636C27.5936 32.6505 23.9499 34 19.4628 34C14.9757 34 11.3657 32.6505 11.3657 30.9636C11.3995 30.5587 11.5681 30.1876 11.8718 29.9177C13.0189 31.0648 15.9878 31.9082 19.4965 31.9082C23.0053 31.9082 25.9742 31.0985 27.1213 29.9177C27.3912 30.1876 27.5936 30.5587 27.5936 30.9636Z" stroke="white" stroke-width="1.2" stroke-miterlimit="10"/>
<path d="M29.0444 18.2107V20.9097C29.0444 21.0447 29.0107 21.1796 28.9095 21.2809L28.0998 22.1243C27.8973 22.3267 27.8973 22.6641 28.1335 22.8665L28.9095 23.575C29.0107 23.6762 29.0781 23.8112 29.0781 23.9461V26.6114C29.0781 27.1175 29.483 27.5223 29.9891 27.5223H38.4235C38.9296 27.5223 39.3344 27.1175 39.3344 26.6114V17.8059C39.3344 17.5022 39.0983 17.2998 38.8284 17.2998H29.9553C29.4493 17.2998 29.0444 17.7047 29.0444 18.2107Z" stroke="#FF9F00" stroke-width="1.4" stroke-miterlimit="10"/>
<path d="M33.1267 25.6668V24.8571C32.6543 24.8571 32.182 24.7559 31.7434 24.5197L31.9796 23.9799C32.3844 24.2161 32.823 24.3173 33.2953 24.3173C33.9364 24.3173 34.375 23.9799 34.375 23.5413C34.375 23.1027 34.0376 22.8328 33.3628 22.5966C32.4182 22.293 31.8446 21.9219 31.8446 21.2134C31.8446 20.5049 32.3844 20.0663 33.2279 19.9314V19.1554H33.8014V19.9314C34.2063 19.9314 34.6111 20.0326 34.9822 20.2013L34.7461 20.7411C34.375 20.5724 34.0038 20.4712 33.599 20.4712C32.8905 20.4712 32.6206 20.8423 32.6206 21.1459C32.6206 21.5508 32.958 21.7532 33.7339 22.0568C34.6786 22.3942 35.1509 22.7991 35.1509 23.5076C35.1509 24.1486 34.6449 24.7221 33.7002 24.8571V25.7005L33.1267 25.6668Z" fill="white"/>
<path d="M34.769 25.7078V24.7697H34.9112V24.9013C34.9407 24.8554 34.9798 24.8186 35.0287 24.7909C35.0776 24.7627 35.1332 24.7485 35.1957 24.7485C35.2651 24.7485 35.322 24.763 35.3661 24.7918C35.4109 24.8207 35.4424 24.861 35.4606 24.9128C35.5348 24.8033 35.6314 24.7485 35.7503 24.7485C35.8434 24.7485 35.9149 24.7744 35.965 24.8263C36.015 24.8775 36.04 24.9567 36.04 25.0639V25.7078H35.8819V25.1169C35.8819 25.0533 35.8766 25.0076 35.866 24.98C35.856 24.9517 35.8375 24.929 35.8104 24.9119C35.7833 24.8949 35.7515 24.8863 35.715 24.8863C35.6491 24.8863 35.5943 24.9084 35.5507 24.9526C35.5071 24.9961 35.4854 25.0662 35.4854 25.1628V25.7078H35.3264V25.0983C35.3264 25.0276 35.3134 24.9747 35.2875 24.9393C35.2616 24.904 35.2192 24.8863 35.1603 24.8863C35.1156 24.8863 35.0741 24.8981 35.0358 24.9217C34.9981 24.9452 34.9707 24.9797 34.9536 25.025C34.9366 25.0703 34.928 25.1357 34.928 25.2211V25.7078H34.769Z" fill="white"/>
<path d="M36.2768 24.5957V24.4129H36.4357V24.5957H36.2768ZM36.2768 25.7078V24.7697H36.4357V25.7078H36.2768Z" fill="white"/>
<path d="M36.6786 25.7078V24.7697H36.8217V24.9031C36.8906 24.8001 36.9901 24.7485 37.1203 24.7485C37.1768 24.7485 37.2286 24.7588 37.2757 24.7795C37.3234 24.7995 37.359 24.826 37.3826 24.8589C37.4061 24.8919 37.4226 24.9311 37.4321 24.9764C37.4379 25.0059 37.4409 25.0574 37.4409 25.131V25.7078H37.2819V25.1372C37.2819 25.0724 37.2757 25.0241 37.2634 24.9923C37.251 24.9599 37.2289 24.9343 37.1971 24.9155C37.1659 24.896 37.1291 24.8863 37.0867 24.8863C37.019 24.8863 36.9604 24.9078 36.9109 24.9508C36.8621 24.9938 36.8376 25.0753 36.8376 25.1955V25.7078H36.6786Z" fill="white"/>
<defs>
<linearGradient id="paint0_linear" x1="1.74461e-08" y1="25.4386" x2="49" y2="25.4386" gradientUnits="userSpaceOnUse">
<stop offset="0.373241" stop-color="#385186"/>
<stop offset="1" stop-color="#1F3460"/>
</linearGradient>
</defs>
</svg>
