<?xml version="1.0" encoding="utf-8"?>
<!-- Generator: Adobe Illustrator 23.0.1, SVG Export Plug-In . SVG Version: 6.00 Build 0)  -->
<svg version="1.1" id="Layer_1" xmlns="http://www.w3.org/2000/svg" xmlns:xlink="http://www.w3.org/1999/xlink" x="0px" y="0px"
	 viewBox="0 0 519.2 121.3" style="enable-background:new 0 0 519.2 121.3;" xml:space="preserve">
<style type="text/css">
	.st0{fill:#12161C;}
	.st1{fill:#F0B90B;}
	.st2{opacity:0.8;fill:#12161C;enable-background:new    ;}
</style>
<g id="bscscan-logo" transform="translate(-219.378 -213.334)">
	<g id="bscscan-logo-circle">
		<path id="Path_1" class="st0" d="M244.6,271.1c0-2.8,2.3-5.1,5.1-5.1c0,0,0,0,0,0l8.6,0c2.8,0,5.2,2.3,5.2,5.2l0,0v32.4
			c1-0.3,2.2-0.6,3.6-0.9c1.9-0.5,3.3-2.2,3.3-4.2v-40.2c0-2.8,2.3-5.2,5.2-5.2h8.6c2.8,0,5.2,2.3,5.2,5.2v37.3c0,0,2.1-0.9,4.2-1.8
			c1.6-0.7,2.6-2.2,2.6-4v-44.5c0-2.8,2.3-5.2,5.1-5.2h8.6c2.8,0,5.1,2.3,5.1,5.2V282c7.4-5.4,15-11.9,21-19.7
			c1.8-2.3,2.3-5.3,1.3-8.1c-11-31.6-45.6-48.4-77.2-37.4c-31.6,11-48.4,45.6-37.4,77.2c1.2,3.6,2.8,7,4.7,10.3
			c1.5,2.6,4.3,4.1,7.3,3.8c1.6-0.1,3.6-0.3,6.1-0.6c2.2-0.2,3.8-2.1,3.8-4.3L244.6,271.1"/>
		<path id="Path_2" class="st1" d="M244.4,323.1c27.1,19.7,65,13.7,84.7-13.4c7.5-10.4,11.6-22.9,11.6-35.7c0-1.4-0.1-2.8-0.2-4.2
			C318.4,302.9,277.5,318.4,244.4,323.1"/>
	</g>
	<g id="words">
		<path id="Path_124" class="st2" d="M374.4,314.7H366l-1.5,4.3H360l7.8-20.9h4.8l7.8,20.9h-4.5L374.4,314.7z M373.3,311.5l-3.1-8.9
			l-3.1,8.9H373.3z M402.1,302.2c1.3,0,2.6,0.3,3.8,1c1.1,0.7,2.1,1.7,2.6,3c0.7,1.4,1,3,0.9,4.5c0,1.6-0.3,3.1-0.9,4.5
			c-0.6,1.2-1.5,2.2-2.6,3c-1.1,0.7-2.4,1-3.8,1c-1.3,0-2.5-0.3-3.6-1c-1-0.6-1.7-1.6-2.1-2.7v11.4h-4.2v-24.5h4.2v3.4
			c0.4-1.1,1.1-2,2.1-2.7C399.6,302.5,400.9,302.1,402.1,302.2z M400.8,305.9c-1.2,0-2.3,0.4-3.2,1.3c-0.9,1-1.3,2.2-1.2,3.5
			c-0.1,1.3,0.4,2.5,1.2,3.5c0.8,0.9,2,1.3,3.2,1.3c1.2,0.1,2.4-0.4,3.2-1.3c0.8-1,1.3-2.2,1.2-3.5c0.1-1.3-0.4-2.6-1.2-3.5
			C403.2,306.3,402,305.8,400.8,305.9z M418.2,305.6c0.6-1,1.4-1.9,2.5-2.5c1-0.6,2.2-0.9,3.4-0.9v4.5h-1.2c-3.1,0-4.6,1.4-4.6,4.3
			v8H414v-16.6h4.2V305.6z M435.6,302.2c1.5,0,3,0.3,4.4,1c1.3,0.7,2.3,1.7,3,3c0.8,1.4,1.1,3,1.1,4.5c0,1.6-0.3,3.1-1.1,4.5
			c-0.7,1.3-1.8,2.3-3,3c-1.3,0.7-2.8,1.1-4.4,1c-1.5,0-3-0.3-4.4-1c-1.3-0.7-2.3-1.7-3-3c-0.8-1.4-1.1-2.9-1.1-4.5
			c0-1.6,0.3-3.2,1.1-4.5c0.7-1.3,1.8-2.3,3-3C432.6,302.5,434.1,302.1,435.6,302.2z M435.6,305.8c-1.1,0-2.2,0.4-3,1.2
			c-0.9,1-1.3,2.3-1.2,3.6c-0.1,1.3,0.4,2.6,1.2,3.6c0.8,0.8,1.9,1.3,3,1.2c1.1,0,2.2-0.4,3-1.2c0.9-1,1.3-2.3,1.2-3.6
			c0.1-1.3-0.4-2.6-1.2-3.6C437.8,306.3,436.7,305.8,435.6,305.8z M455.1,302.2c1.3,0,2.5,0.3,3.6,1c1,0.6,1.7,1.6,2.1,2.7v-9h4.2
			V319h-4.2v-3.5c-0.4,1.1-1.2,2-2.1,2.7c-1.1,0.7-2.3,1-3.6,1c-1.3,0-2.6-0.3-3.8-1c-1.1-0.7-2.1-1.7-2.6-3c-0.7-1.4-1-3-0.9-4.5
			c0-1.6,0.3-3.1,0.9-4.5c0.6-1.2,1.5-2.2,2.6-3C452.5,302.5,453.8,302.2,455.1,302.2z M456.5,305.9c-1.2-0.1-2.4,0.4-3.2,1.3
			c-0.8,1-1.3,2.2-1.2,3.5c-0.1,1.3,0.4,2.6,1.2,3.5c0.8,0.9,2,1.3,3.2,1.3c1.2,0,2.3-0.4,3.2-1.3c0.9-1,1.3-2.2,1.2-3.5
			c0.1-1.3-0.4-2.6-1.2-3.5C458.8,306.3,457.7,305.8,456.5,305.9z M486.3,302.4V319h-4.2v-3.4c-0.4,1.1-1.2,2-2.2,2.6
			c-1.1,0.6-2.3,1-3.5,0.9c-1.7,0.1-3.4-0.6-4.6-1.9c-1.2-1.5-1.8-3.4-1.7-5.3v-9.7h4.2v9.2c-0.1,1.1,0.3,2.2,1,3.1
			c0.7,0.7,1.7,1.1,2.8,1.1c1.1,0.1,2.2-0.4,2.9-1.2c0.8-0.9,1.2-2.1,1.1-3.4v-8.8L486.3,302.4z M499.1,302.2
			c1.9-0.1,3.8,0.5,5.4,1.7c1.4,1.2,2.4,2.9,2.7,4.7h-4.5c-0.1-0.8-0.6-1.6-1.2-2.1c-0.7-0.5-1.6-0.8-2.4-0.8
			c-1.1,0-2.1,0.4-2.8,1.2c-0.8,1-1.2,2.3-1.1,3.6c-0.1,1.3,0.3,2.6,1.1,3.6c0.7,0.8,1.7,1.3,2.8,1.2c0.9,0,1.7-0.2,2.4-0.8
			c0.6-0.5,1.1-1.3,1.2-2.1h4.5c-0.3,1.9-1.2,3.5-2.7,4.7c-1.5,1.2-3.4,1.8-5.4,1.7c-1.5,0-3-0.3-4.3-1c-1.2-0.7-2.3-1.7-2.9-3
			c-0.7-1.4-1.1-3-1-4.5c0-1.6,0.3-3.1,1-4.5c0.7-1.3,1.7-2.3,2.9-3C496.1,302.5,497.6,302.1,499.1,302.2z M520.5,315.4v3.6h-2.2
			c-1.5,0.1-3.1-0.4-4.3-1.4c-1-0.9-1.5-2.4-1.5-4.5V306h-2.3v-3.6h2.3v-4.1h4.2v4.1h3.7v3.6h-3.7v7.3c-0.1,0.6,0.1,1.2,0.5,1.7
			c0.5,0.4,1,0.5,1.6,0.5H520.5z M540.8,302.2c1.5,0,3,0.3,4.4,1c1.3,0.7,2.3,1.7,3,3c0.8,1.4,1.1,3,1.1,4.5c0,1.6-0.3,3.1-1.1,4.5
			c-0.7,1.3-1.8,2.3-3,3c-1.3,0.7-2.8,1.1-4.4,1c-1.5,0-3-0.3-4.4-1c-1.3-0.7-2.3-1.7-3-3c-0.8-1.4-1.1-2.9-1.1-4.5
			c0-1.6,0.3-3.2,1.1-4.5c0.7-1.3,1.8-2.3,3-3C537.8,302.5,539.3,302.1,540.8,302.2z M540.8,305.8c-1.1,0-2.2,0.4-3,1.2
			c-0.9,1-1.3,2.3-1.2,3.6c-0.1,1.3,0.4,2.6,1.2,3.6c0.8,0.8,1.9,1.3,3,1.2c1.1,0,2.2-0.4,3-1.2c0.9-1,1.3-2.3,1.2-3.6
			c0.1-1.3-0.4-2.6-1.2-3.6C543,306.3,541.9,305.8,540.8,305.8z M562,299.5c-0.9-0.2-1.8,0-2.6,0.5c-0.6,0.6-0.8,1.5-0.8,2.3v0h3.4
			v3.6h-3.4v13h-4.2v-13h-2.1v-3.6h2.1V302c-0.1-1.7,0.5-3.4,1.7-4.6c1.4-1.2,3.2-1.7,5-1.6c0.4,0,0.7,0,0.9,0V299.5z M579.1,301.9
			v4.4h7.2v3.9h-7.2v4.7h8.1v4.1h-13.2v-21.2h13.2v4.1H579.1z M601,314.6v4.4h-2.3c-1.7,0.1-3.3-0.4-4.6-1.5c-1.1-1-1.6-2.6-1.6-4.8
			v-6.2h-2.2v-4.3h2.2v-4.1h5.1v4.1h3.4v4.3h-3.4v6.2c-0.1,0.5,0.1,1,0.4,1.4c0.4,0.3,0.9,0.4,1.4,0.4H601z M616,302.1
			c1.7-0.1,3.4,0.6,4.6,1.9c1.2,1.5,1.8,3.4,1.7,5.3v9.7h-5.1v-9.1c0.1-1-0.3-1.9-0.9-2.6c-0.6-0.6-1.5-1-2.4-0.9
			c-0.9,0-1.8,0.3-2.5,1c-0.7,0.8-1,1.8-0.9,2.8v8.9h-5.1v-22.2h5.1v8.5c0.5-1,1.2-1.8,2.1-2.4C613.7,302.4,614.9,302.1,616,302.1z
			 M643.1,310.2c0,0.5-0.1,0.9-0.2,1.4h-11.6c0,1,0.3,2,1,2.7c0.6,0.6,1.4,0.9,2.2,0.8c0.7,0,1.3-0.2,1.9-0.6c0.5-0.4,0.8-0.9,1-1.5
			h5.4c-0.2,1.2-0.7,2.2-1.4,3.2c-0.8,0.9-1.7,1.7-2.8,2.2c-1.2,0.5-2.5,0.8-3.8,0.8c-1.5,0-3-0.3-4.4-1c-1.3-0.7-2.3-1.7-3-3
			c-0.7-1.4-1.1-3-1.1-4.6c0-1.6,0.3-3.2,1.1-4.6c0.7-1.3,1.7-2.3,3-3c1.4-0.7,2.9-1.1,4.4-1c1.5,0,3,0.3,4.4,1
			c1.2,0.7,2.2,1.6,2.9,2.9C642.8,307.2,643.1,308.7,643.1,310.2z M637.9,309.4c0.1-0.9-0.2-1.8-0.9-2.5c-0.6-0.6-1.4-0.8-2.3-0.8
			c-0.9,0-1.7,0.3-2.3,0.8c-0.7,0.6-1,1.5-1,2.5H637.9z M652.4,305.4c0.6-1,1.5-1.8,2.5-2.4c1-0.6,2.1-0.9,3.3-0.9v5.5h-1.5
			c-1.1-0.1-2.2,0.2-3.2,0.9c-0.8,0.7-1.2,1.8-1.1,2.9v7.6h-5.1v-16.7h5.1V305.4z M667.9,302c1.8-0.1,3.6,0.5,5.1,1.6
			c1.3,1.1,2.1,2.6,2.4,4.2h-4.8c-0.1-0.6-0.4-1.2-1-1.6c-0.5-0.4-1.2-0.6-1.8-0.6c-0.5,0-0.9,0.1-1.3,0.4c-0.3,0.3-0.5,0.7-0.5,1.1
			c0,0.5,0.3,1,0.8,1.2c0.8,0.3,1.7,0.6,2.6,0.8c1.1,0.2,2.1,0.5,3.2,0.9c0.8,0.3,1.6,0.8,2.1,1.5c0.6,0.8,1,1.8,0.9,2.8
			c0,0.9-0.3,1.8-0.8,2.5c-0.6,0.8-1.4,1.4-2.2,1.7c-1.1,0.4-2.3,0.7-3.5,0.6c-1.9,0.1-3.8-0.4-5.4-1.5c-1.4-1-2.3-2.6-2.5-4.3h5
			c0,0.7,0.4,1.3,0.9,1.6c0.6,0.4,1.3,0.6,2.1,0.6c0.5,0,0.9-0.1,1.3-0.4c0.3-0.3,0.5-0.7,0.5-1.1c0-0.5-0.3-1.1-0.8-1.2
			c-0.9-0.3-1.8-0.6-2.7-0.8c-1-0.2-2.1-0.5-3.1-0.8c-0.8-0.3-1.5-0.8-2.1-1.5c-0.6-0.8-0.9-1.8-0.9-2.7c0-1.4,0.6-2.8,1.7-3.6
			C664.5,302.4,666.2,301.9,667.9,302z M687.5,302c2-0.1,3.9,0.6,5.4,1.8c1.5,1.2,2.5,3,2.8,4.9h-5.4c-0.1-0.7-0.5-1.3-1-1.7
			c-0.5-0.4-1.2-0.6-1.9-0.6c-0.9,0-1.7,0.4-2.2,1.1c-0.6,0.9-0.9,2-0.9,3.1c-0.1,1.1,0.2,2.2,0.9,3.1c0.5,0.7,1.4,1.1,2.2,1.1
			c0.7,0,1.3-0.2,1.9-0.6c0.5-0.4,0.9-1,1-1.7h5.4c-0.3,1.9-1.3,3.7-2.8,4.9c-1.5,1.2-3.5,1.9-5.4,1.8c-1.5,0-3-0.3-4.4-1
			c-1.3-0.7-2.3-1.7-3-3c-0.7-1.4-1.1-3-1.1-4.6c0-1.6,0.3-3.2,1.1-4.6c0.7-1.3,1.7-2.3,3-3C684.5,302.4,686,302,687.5,302z
			 M706.2,302c1.2,0,2.3,0.3,3.3,0.9c0.9,0.6,1.6,1.4,2,2.4v-3h5.1V319h-5.1v-3c-0.4,1-1.1,1.8-2,2.4c-1,0.6-2.1,0.9-3.3,0.9
			c-1.3,0-2.6-0.3-3.7-1c-1.1-0.7-2-1.8-2.6-3c-0.7-1.4-1-3-0.9-4.6c0-1.6,0.3-3.1,0.9-4.6c0.6-1.2,1.5-2.2,2.6-3
			C703.6,302.4,704.9,302,706.2,302z M707.9,306.5c-1,0-2,0.4-2.7,1.1c-0.7,0.8-1.1,1.9-1,3c-0.1,1.1,0.3,2.2,1,3
			c0.7,0.7,1.7,1.1,2.7,1.1c1,0,2-0.4,2.7-1.1c0.7-0.8,1.1-1.9,1-3c0.1-1.1-0.3-2.2-1-3C709.9,306.9,708.9,306.5,707.9,306.5z
			 M732.3,302.1c1.7-0.1,3.4,0.6,4.6,1.9c1.2,1.5,1.8,3.4,1.7,5.3v9.7h-5.1v-9.1c0.1-1-0.3-1.9-0.9-2.6c-0.6-0.6-1.5-1-2.4-0.9
			c-0.9,0-1.8,0.3-2.5,1c-0.7,0.8-1,1.8-0.9,2.8v8.9h-5.1v-16.7h5.1v3.1c0.5-1,1.2-1.8,2.1-2.4C730,302.4,731.2,302.1,732.3,302.1z"
			/>
		<path id="Path_123" class="st0" d="M391,252.8c2.9,0.5,5.5,2.1,7.4,4.4c1.8,2.3,2.8,5.1,2.8,8c0.2,3.8-1.4,7.6-4.3,10.1
			c-2.9,2.5-7,3.7-12.4,3.7h-21.8v-50.8H384c5.1,0,9.1,1.1,11.8,3.4s4.1,5.4,4.1,9.5c0.1,2.8-0.8,5.6-2.5,7.8
			C395.8,250.8,393.5,252.2,391,252.8z M372.8,249.5h9.1c2.1,0.1,4.1-0.5,5.8-1.7c1.4-1.2,2.1-3,2-4.9c0.1-1.8-0.6-3.6-1.9-4.9
			c-1.3-1.2-3.3-1.7-6-1.7h-9V249.5z M382.4,270.7c2.2,0.1,4.4-0.5,6.2-1.8c1.5-1.3,2.3-3.2,2.2-5.1c0.1-2-0.7-3.9-2.2-5.2
			c-1.8-1.3-4-2-6.2-1.8h-9.6v14H382.4z M422,238.6c4.8,0,8.7,1.2,11.7,3.7c3,2.5,4.9,6,5.5,9.8h-9.5c-0.3-1.8-1.2-3.4-2.6-4.6
			c-1.5-1.2-3.4-1.8-5.3-1.7c-1.4-0.1-2.9,0.3-4,1.2c-1,0.8-1.5,2-1.4,3.3c0,1,0.4,2,1.2,2.7c0.8,0.7,1.8,1.3,2.9,1.6
			c1.2,0.4,2.8,0.8,5,1.4c2.5,0.5,5,1.2,7.4,2.1c1.9,0.7,3.6,2,4.9,3.5c1.4,1.9,2.2,4.2,2.1,6.5c0.1,3.2-1.4,6.3-4,8.3
			c-2.7,2.1-6.3,3.2-10.8,3.2c-5.2,0-9.3-1.2-12.5-3.5c-3.2-2.4-5.2-6-5.7-10h9.7c0.2,1.8,1.1,3.5,2.6,4.6c1.7,1.2,3.8,1.8,5.8,1.7
			c1.4,0.1,2.8-0.4,4-1.3c0.9-0.8,1.4-2,1.4-3.3c0-1.1-0.4-2.1-1.2-2.8c-0.9-0.8-1.9-1.3-3-1.7c-1.2-0.4-2.8-0.8-5-1.4
			c-2.5-0.5-4.9-1.2-7.2-2.1c-1.8-0.7-3.5-1.8-4.8-3.3c-1.4-1.8-2.1-4.1-2-6.3c-0.1-3.3,1.4-6.4,4-8.4
			C413.7,239.7,417.4,238.6,422,238.6z M465.1,238.6c4.6-0.2,9.2,1.3,12.9,4.2c3.5,2.9,5.8,6.9,6.4,11.4h-10.7c-0.3-2-1.4-3.7-3-5
			c-1.7-1.3-3.7-1.9-5.8-1.8c-2.6,0-5,1-6.7,3c-1.8,2-2.7,4.9-2.7,8.7c0,3.8,0.9,6.8,2.7,8.7c1.7,1.9,4.2,3,6.7,3
			c2.1,0.1,4.2-0.6,5.8-1.8c1.6-1.3,2.6-3,3-5h10.7c-0.7,4.5-3,8.5-6.4,11.4c-3.7,2.9-8.2,4.3-12.8,4.2c-3.6,0.1-7.2-0.8-10.4-2.5
			c-3-1.6-5.4-4.1-7.1-7.1c-1.7-3.4-2.6-7.1-2.5-10.9c-0.1-3.8,0.8-7.5,2.5-10.9c1.6-3,4.1-5.5,7.1-7.1
			C458,239.4,461.5,238.5,465.1,238.6z M526.6,265.1c0,2.5-0.7,5-1.9,7.2c-1.4,2.3-3.4,4.1-5.8,5.3c-2.9,1.4-6.1,2.1-9.3,2
			c-3.3,0.1-6.6-0.6-9.6-1.8c-2.7-1.1-5-3-6.8-5.3c-1.7-2.4-2.7-5.2-2.9-8.1H501c0.2,2,1.1,3.8,2.5,5.1c1.5,1.4,3.6,2.2,5.7,2.1
			c1.8,0.1,3.5-0.5,4.9-1.7c1.1-1.2,1.8-2.7,1.7-4.4c0.1-1.4-0.4-2.8-1.4-3.9c-1-1.1-2.1-1.9-3.5-2.5c-1.4-0.6-3.3-1.3-5.8-2.2
			c-2.7-0.9-5.3-1.9-7.8-3.1c-2.1-1.1-3.8-2.6-5.1-4.5c-1.5-2.3-2.2-5-2.1-7.7c-0.2-4,1.6-7.8,4.7-10.3c3.1-2.5,7.3-3.8,12.5-3.8
			c5.4,0,9.7,1.3,12.9,3.9c3.2,2.6,5.1,6.3,5.4,10.4h-10.9c-0.2-1.7-1-3.3-2.3-4.5c-1.4-1.2-3.2-1.9-5.1-1.8
			c-1.6-0.1-3.3,0.4-4.5,1.5c-1.2,1.1-1.8,2.7-1.7,4.3c0,1.4,0.4,2.7,1.3,3.7c0.9,1,2.1,1.8,3.4,2.4c1.8,0.8,3.7,1.5,5.6,2.1
			c2.7,0.9,5.4,2,8,3.2c2.1,1.1,3.9,2.6,5.2,4.5C525.9,259.5,526.7,262.3,526.6,265.1L526.6,265.1z M552,238.6
			c4.6-0.2,9.2,1.3,12.9,4.2c3.5,2.9,5.8,6.9,6.4,11.4h-10.7c-0.3-2-1.4-3.7-3-5c-1.7-1.3-3.7-1.9-5.8-1.8c-2.6,0-5,1-6.7,3
			c-1.8,2-2.7,4.9-2.7,8.7s0.9,6.8,2.7,8.7c1.7,1.9,4.2,3,6.7,3c2.1,0.1,4.2-0.6,5.8-1.8c1.6-1.3,2.6-3,3-5h10.7
			c-0.7,4.5-3,8.5-6.4,11.4c-3.7,2.9-8.2,4.3-12.9,4.2c-3.6,0.1-7.2-0.8-10.4-2.5c-3-1.6-5.4-4.1-7.1-7.1c-1.7-3.4-2.6-7.1-2.5-10.9
			c-0.1-3.8,0.8-7.5,2.5-10.9c1.6-3,4.1-5.5,7.1-7.1C544.8,239.4,548.4,238.5,552,238.6z M594.1,238.6c3.1-0.1,6.1,0.7,8.6,2.4
			c2.4,1.5,4.1,3.8,5.1,6.4v-8.3h10.1V279h-10.1v-8.4c-1,2.6-2.8,4.9-5.1,6.4c-2.6,1.7-5.6,2.5-8.6,2.4c-3.2,0-6.3-0.8-9.1-2.4
			c-2.7-1.7-4.9-4.2-6.3-7.1c-1.6-3.4-2.4-7.1-2.3-10.9c-0.1-3.8,0.7-7.5,2.3-10.9c1.4-2.9,3.6-5.4,6.3-7.1
			C587.8,239.4,590.9,238.6,594.1,238.6z M597.3,247.5c-2.9-0.1-5.7,1-7.6,3.1c-1.9,2.1-2.9,4.9-2.9,8.5c0,3.6,1,6.4,2.9,8.5
			c2,2.1,4.8,3.2,7.6,3.1c2.9,0.1,5.6-1.1,7.6-3.1c2.1-2.3,3.1-5.3,3-8.4c0.2-3.1-0.9-6.1-3-8.5
			C602.9,248.5,600.1,247.4,597.3,247.5z M650.9,238.5c4.2-0.2,8.2,1.5,11,4.5c2.7,3,4.1,7.3,4.1,12.7V279h-10.1v-22
			c0-3.2-0.8-5.6-2.4-7.4c-1.7-1.8-4.2-2.8-6.7-2.6c-2.6-0.1-5.1,0.9-6.9,2.8c-1.7,1.9-2.6,4.6-2.6,8.1V279h-10.1v-39.9h10.2v8
			c1-2.6,2.8-4.8,5.2-6.3C645,239.3,647.9,238.5,650.9,238.5L650.9,238.5z"/>
	</g>
</g>
</svg>
