<svg width="202" height="39" viewBox="0 0 202 39" fill="none" xmlns="http://www.w3.org/2000/svg">
<path d="M68.7481 10.1057V28.894H64.7627V21.1367H56.2226V28.894H52.166V10.1057H56.1514V17.5072H64.6916V10.1057H68.7481Z" fill="white"/>
<path d="M72.0219 32.9507L72.8759 30.2463C73.4453 30.6021 74.0858 30.8156 74.7263 30.8868C75.3668 30.958 76.0073 30.6733 76.3631 30.104L76.8613 29.0364L70.9544 14.7317H75.0821L78.7828 24.624L82.2701 14.7317H86.3266L80.562 29.5346C79.4945 32.3102 77.7153 33.7335 75.5091 33.7335C74.2993 33.8047 73.0894 33.4488 72.0219 32.9507Z" fill="white"/>
<path d="M103.976 21.7773C103.976 26.1185 101.272 29.1787 97.5 29.1787C95.6496 29.1787 93.8704 28.3247 92.8029 26.8302V33.52H88.8175V14.7317H92.8029V16.7244C93.9416 15.2298 95.7208 14.3758 97.5712 14.447C101.272 14.447 103.976 17.5072 103.976 21.7773ZM100.062 21.7773C100.062 19.4287 98.4964 17.7919 96.2902 17.7919C94.3686 17.7919 92.8029 19.3576 92.7318 21.2791V22.3466C92.9453 24.4105 94.3686 25.8339 96.2902 25.8339C98.5675 25.8339 100.062 24.197 100.062 21.7773Z" fill="white"/>
<path d="M116.715 24.4106L119.277 27.0439C117.712 28.4672 115.648 29.2501 113.513 29.2501C109.527 29.3924 106.111 26.1898 106.04 22.2044C106.04 22.0621 106.04 21.9198 106.04 21.8486C105.898 17.9344 108.958 14.6606 112.943 14.5183C113.086 14.5183 113.228 14.5183 113.299 14.5183C117.712 14.5183 120.345 17.8632 120.345 23.2008H110.168C110.595 24.6953 111.947 25.7628 113.513 25.7628C114.651 25.6917 115.79 25.1935 116.715 24.4106ZM110.168 20.2117H116.502C116.217 18.7884 114.865 17.8632 113.442 17.9344C111.947 17.9344 110.666 18.8596 110.168 20.2117Z" fill="white"/>
<path d="M131.803 14.447V17.7919C128.885 17.7919 126.963 19.4999 126.963 22.1331V28.8941H122.978V14.7317H126.963V17.3649C127.889 15.5145 129.739 14.3758 131.803 14.447Z" fill="white"/>
<path d="M133.013 27.0439L134.721 24.2683C136.073 25.2647 137.71 25.834 139.418 25.9052C140.485 25.9052 141.268 25.4782 141.268 24.8377C141.268 23.9836 140.201 23.699 138.777 23.272C135.859 22.5603 133.653 21.7774 133.653 19.0019C133.653 16.2975 135.859 14.376 139.204 14.376C141.197 14.376 143.119 15.0165 144.755 16.1552L143.119 19.0019C141.909 18.219 140.557 17.792 139.133 17.792C138.137 17.792 137.496 18.1479 137.496 18.646C137.496 19.4289 138.066 19.6424 139.987 20.1406C142.407 20.7811 145.111 21.5639 145.111 24.6953C145.111 27.4709 142.834 29.2501 139.347 29.2501C137.069 29.2501 134.863 28.4672 133.013 27.0439Z" fill="white"/>
<path d="M147.033 21.7773C147.033 17.7919 150.591 14.3759 154.79 14.3759C158.918 14.3047 162.334 17.6496 162.476 21.7773C162.334 25.9051 158.918 29.1788 154.79 29.1788C150.591 29.1788 147.033 25.8339 147.033 21.7773ZM158.633 21.7773C158.562 19.6423 156.712 17.9343 154.577 18.0054C152.442 18.0766 150.805 19.927 150.876 22.062C150.947 24.197 152.655 25.8339 154.79 25.8339C156.925 25.7627 158.704 23.9835 158.633 21.7773Z" fill="white"/>
<path d="M178.56 19.8559V28.823H174.717V20.7099C174.717 18.9307 173.65 17.792 172.013 17.792C170.447 17.7208 169.095 18.9307 169.095 20.4964V20.4252V28.8942H165.109V14.7318H169.095V16.511C170.091 15.1588 171.657 14.3048 173.365 14.376C176.354 14.4471 178.56 16.7245 178.56 19.8559Z" fill="white"/>
<path d="M181.763 10.6041C181.763 9.39424 182.759 8.46905 183.969 8.54022C185.179 8.54022 186.104 9.53657 186.033 10.7464C186.033 11.8851 185.108 12.8103 183.969 12.8103C182.688 12.8103 181.763 11.8139 181.763 10.6041ZM181.905 14.7318H185.891V28.8942H181.905V14.7318Z" fill="white"/>
<path d="M188.595 21.7774C188.595 17.792 192.153 14.376 196.352 14.376C198.487 14.376 200.48 15.23 201.903 16.7957L199.27 19.0731C198.487 18.2902 197.491 17.792 196.352 17.792C194.217 17.8632 192.509 19.6424 192.509 21.7774C192.438 23.9836 194.217 25.7628 196.352 25.834C197.491 25.7628 198.558 25.3358 199.27 24.4818L201.903 26.7592C200.48 28.396 198.416 29.2501 196.281 29.2501C192.153 29.2501 188.737 25.9052 188.595 21.7774Z" fill="white"/>
<path d="M31.385 0H30.3887L25.1223 5.26642H11.031C4.98175 5.26642 0 10.177 0 16.2974V27.969C0 34.0894 4.98175 39 11.031 39H12.0985L17.365 33.7336H31.385C37.5055 33.7336 42.4161 28.823 42.4161 22.7026V11.031C42.4161 4.91058 37.5055 0 31.385 0ZM11.031 10.7464H19.6423L24.9088 5.47993H31.385C34.4453 5.47993 36.9361 7.9708 36.9361 11.031V16.2263C33.0931 15.3011 26.4033 14.8029 20.9234 19.1442C14.6606 24.1259 8.32664 19.3577 5.40876 16.5821V16.2263C5.47993 13.2372 7.9708 10.7464 11.031 10.7464ZM31.385 28.2537H22.7737L17.5073 33.5201H11.031C7.9708 33.5201 5.47993 31.0292 5.47993 27.969V22.2755C7.7573 23.4142 10.2482 24.0547 12.7391 24.0547C15.5858 24.0547 18.7883 21.3504 21.9909 18.7883C27.0438 14.7318 33.5201 18.7172 36.9361 21.4927V22.7026C36.9361 25.7628 34.4453 28.2537 31.385 28.2537Z" fill="#FF9F00"/>
</svg>
