<svg width="30" height="32" viewBox="0 0 30 32" fill="none" xmlns="http://www.w3.org/2000/svg">
<path d="M21.9746 0H11.8259C10.7078 0 9.67571 0.419394 8.85865 1.1743L1.3761 8.09431C1.24709 8.22013 1.11808 8.34595 0.989073 8.51371H0.94607V8.55564C0.344025 9.31055 0 10.2332 0 11.1559V28.6027C0 29.9448 1.11808 31.0352 2.49418 31.0352H21.9746C23.3507 31.0352 24.4688 29.9448 24.4688 28.6027V2.43249C24.4688 1.09043 23.3507 0 21.9746 0ZM10.0627 2.34861C10.1918 2.22279 10.3638 2.09697 10.5358 2.01309V7.5491C10.5358 8.05237 10.1057 8.47177 9.58971 8.47177H3.39725L10.0627 2.34861ZM22.7917 28.5608C22.7917 28.9801 22.4477 29.3157 22.0176 29.3576C22.0176 29.3576 22.0176 29.3576 21.9746 29.3576H2.49418C2.06415 29.3576 1.72013 29.0221 1.72013 28.6027V11.1559C1.72013 10.8204 1.80613 10.4849 1.93514 10.1493H9.58971C11.0518 10.1493 12.2559 8.97504 12.2559 7.5491V1.67758H22.0176C22.4477 1.67758 22.7917 2.01309 22.8347 2.43249V28.5608H22.7917Z" fill="white"/>
<path d="M19.8245 26.2542H4.64434V27.3865H19.8245V26.2542Z" fill="white"/>
<path d="M19.8245 22.9409H4.64434V24.1152H19.8245V22.9409Z" fill="white"/>
<path d="M20.066 15.5592L19.3157 14.9088L19.3229 14.9018L19.3318 14.8921L20.0988 14.061C20.2936 13.8641 20.3675 13.6031 20.3675 13.3787V10.8204C20.3675 10.647 20.5618 10.4397 20.7705 10.4397H29.3712C29.3738 10.4397 29.3753 10.44 29.3758 10.4401L29.3772 10.4405C29.3781 10.4409 29.3802 10.4421 29.3829 10.4448C29.3848 10.4468 29.3863 10.4489 29.3872 10.4505V18.8728C29.3872 19.0158 29.2252 19.2116 28.9841 19.2116H20.8135C20.5773 19.2116 20.4105 19.0197 20.4105 18.8309V16.3145C20.4105 15.9627 20.2279 15.716 20.0876 15.5791L20.077 15.5688L20.066 15.5592Z" fill="#FCA311" stroke="white"/>
<path d="M24.8128 18.1597V17.3629C24.3828 17.3629 23.9528 17.2371 23.5657 17.0274L23.7808 16.4822C24.1248 16.6919 24.5548 16.8177 24.9418 16.8177C25.5009 16.8177 25.8879 16.4822 25.8879 16.0208C25.8879 15.5595 25.5869 15.3079 24.9848 15.0982C24.1678 14.7626 23.6517 14.4271 23.6517 13.7142C23.6947 13.0431 24.2108 12.4979 24.8988 12.456V11.6172H25.3719V12.3721C25.7589 12.3721 26.1029 12.456 26.4469 12.6657L26.2319 13.2109C25.9309 13.0431 25.5869 12.9173 25.1999 12.9592C24.5548 12.9592 24.3398 13.3367 24.3398 13.6303C24.3398 14.0497 24.6408 14.2594 25.3289 14.5529C26.1889 14.8885 26.576 15.3079 26.576 16.0208C26.576 16.7338 26.0169 17.321 25.2859 17.3629V18.2017L24.8128 18.1597Z" fill="white"/>
<path d="M17.6743 13.4626C17.6743 13.7142 17.5453 13.9659 17.3303 14.1336C16.5562 14.8886 14.5781 15.4338 12.2129 15.4338C9.84773 15.4338 7.86959 14.8886 7.09553 14.1336C6.88051 13.9659 6.7515 13.7142 6.7515 13.4626C6.7515 12.3722 9.20268 11.4915 12.2129 11.4915C15.2231 11.4915 17.6743 12.3722 17.6743 13.4626Z" fill="white"/>
<path d="M17.6743 15.4337C17.6743 16.5241 15.2231 17.4049 12.2129 17.4049C9.20268 17.4049 6.7515 16.5241 6.7515 15.4337C6.7515 15.1821 6.88051 14.9305 7.09553 14.7627C7.86959 15.5176 9.84773 16.0628 12.2129 16.0628C14.5781 16.0628 16.5562 15.5176 17.3303 14.7627C17.5453 14.8885 17.6743 15.1401 17.6743 15.4337Z" fill="white"/>
<path d="M17.6743 17.2792C17.6743 18.3696 15.2231 19.2503 12.2129 19.2503C9.20268 19.2503 6.7515 18.3696 6.7515 17.2792C6.7515 17.0275 6.88051 16.7759 7.09553 16.6082C7.86959 17.3631 9.84773 17.9083 12.2129 17.9083C14.5781 17.9083 16.5562 17.3631 17.3303 16.6082C17.5453 16.7759 17.6743 17.0275 17.6743 17.2792Z" fill="white"/>
<path d="M17.6743 19.1663C17.6743 20.2568 15.2231 21.1375 12.2129 21.1375C9.20268 21.1375 6.7515 20.2568 6.7515 19.1663C6.7515 18.9147 6.88051 18.6631 7.09553 18.4534C7.86959 19.2083 9.84773 19.7535 12.2129 19.7535C14.5781 19.7535 16.5562 19.2502 17.3303 18.4534C17.5453 18.6211 17.6743 18.8728 17.6743 19.1663Z" fill="white"/>
</svg>
