<svg width="30" height="37" viewBox="0 0 30 37" fill="none" xmlns="http://www.w3.org/2000/svg">
<g clip-path="url(#clip0)">
<path d="M7.39843e-06 27.5182C2.25182 28.8727 4.7942 29.5856 7.33657 29.5856C9.8063 29.5856 12.6392 27.3043 15.3995 25.0943C20.7748 20.8881 27.8935 26.8053 29.9274 28.6589V23.312C27.0944 22.4565 20.0484 21.0307 14.4552 25.4508C8.06296 30.4411 1.45279 23.9537 -0.0726318 22.2427L7.39843e-06 27.5182Z" fill="white"/>
<path d="M27.3123 15.6126C27.7482 15.6126 28.0387 15.8978 28.0387 16.3255V34.3621C28.0387 34.7899 27.7482 35.075 27.3123 35.075H2.76029C2.32446 35.075 2.0339 34.7899 2.0339 34.3621V16.3255C2.0339 15.8978 2.32446 15.6126 2.76029 15.6126H27.3123ZM27.3123 13.6165H2.76029C1.23487 13.6165 0 14.8284 0 16.3255V34.3621C0 35.8592 1.23487 36.9999 2.76029 36.9999H27.3123C28.8378 36.9999 30.0726 35.7879 30.0726 34.2908V16.3255C30 14.8284 28.7651 13.6165 27.3123 13.6165Z" fill="#FCA311"/>
<path d="M26.1501 13.6166H24.1162V10.9788C24.2615 5.98844 20.2663 1.85356 15.2542 1.71098C10.2421 1.5684 6.02906 5.4894 5.88378 10.4085C5.88378 10.5511 5.88378 10.7649 5.88378 10.9075V13.5453H3.84988V10.9075C3.84988 4.91908 8.86199 0 15.0363 0C21.2107 0 26.1501 4.91908 26.1501 10.9075V13.6166Z" fill="#FCA311"/>
</g>
<defs>
<clipPath id="clip0">
<rect width="30" height="37" fill="white"/>
</clipPath>
</defs>
</svg>
