<svg width="69" height="70" viewBox="0 0 69 70" fill="none" xmlns="http://www.w3.org/2000/svg">
<path d="M30.9442 20.6935H38.3157C38.7951 20.6935 39.2146 21.113 39.2146 21.5924V49.4001C39.2146 49.8795 38.7951 50.299 38.3157 50.299H30.9442C30.4648 50.299 30.0453 49.8795 30.0453 49.4001V21.5924C30.0453 21.113 30.4049 20.6935 30.9442 20.6935Z" fill="#10213E"/>
<path d="M34.6 21.2929C34.2405 21.2929 34.0007 21.0532 34.0007 20.6936V16.7982C34.0007 16.4386 34.2405 16.1989 34.6 16.1989C34.9596 16.1989 35.1993 16.4386 35.1993 16.7982V20.6936C35.1993 21.0532 34.9596 21.2929 34.6 21.2929Z" fill="#10213E"/>
<path d="M34.6 54.8538C34.2405 54.8538 34.0007 54.6141 34.0007 54.2545V50.3591C34.0007 49.9995 34.2405 49.7598 34.6 49.7598C34.9596 49.7598 35.1993 49.9995 35.1993 50.3591V54.2545C35.1993 54.5542 34.9596 54.8538 34.6 54.8538Z" fill="#10213E"/>
<path d="M43.5896 45.1453H50.9611C51.4405 45.1453 51.86 45.5648 51.86 46.0442V53.116C51.86 53.5954 51.4405 54.0149 50.9611 54.0149H43.5896C43.1102 54.0149 42.6907 53.5954 42.6907 53.116V46.0442C42.6907 45.5648 43.1102 45.1453 43.5896 45.1453Z" fill="#10213E"/>
<path d="M47.3053 45.6248C46.9457 45.6248 46.706 45.3851 46.706 45.0255V42.029C46.706 41.6694 46.9457 41.4297 47.3053 41.4297C47.6649 41.4297 47.9046 41.6694 47.9046 42.029V45.0255C47.9046 45.3851 47.6649 45.6248 47.3053 45.6248Z" fill="#10213E"/>
<path d="M47.3053 57.9105C46.9457 57.9105 46.706 57.6707 46.706 57.3111V54.3146C46.706 53.9551 46.9457 53.7153 47.3053 53.7153C47.6649 53.7153 47.9046 53.9551 47.9046 54.3146V57.3111C47.9046 57.6707 47.6649 57.9105 47.3053 57.9105Z" fill="#10213E"/>
<path d="M18.239 35.3167H25.6104C26.0898 35.3167 26.5094 35.7362 26.5094 36.2156V51.318C26.5094 51.7975 26.0898 52.217 25.6104 52.217H18.239C17.7595 52.217 17.34 51.7975 17.34 51.318V36.2156C17.34 35.6762 17.7595 35.3167 18.239 35.3167Z" fill="#10213E"/>
<path d="M21.9548 35.9159C21.5952 35.9159 21.3555 35.6762 21.3555 35.3166V32.3801C21.3555 32.0205 21.5952 31.7808 21.9548 31.7808C22.3144 31.7808 22.5541 32.0205 22.5541 32.3801V35.3166C22.5541 35.6163 22.2544 35.9159 21.9548 35.9159Z" fill="#10213E"/>
<path d="M21.9548 55.6928C21.5952 55.6928 21.3555 55.4531 21.3555 55.0935V52.1569C21.3555 51.7973 21.5952 51.5576 21.9548 51.5576C22.3144 51.5576 22.5541 51.7973 22.5541 52.1569V55.0935C22.5541 55.4531 22.2544 55.6928 21.9548 55.6928Z" fill="#10213E"/>
<path d="M49.9421 42.5682C45.0278 42.688 39.3944 38.1932 33.701 33.8183C21.0557 24.1696 4.15539 42.5682 3.97559 42.688L2.29755 31.9006C3.07664 31.4211 21.2955 23.5703 35.5589 34.4776C50.3017 45.6845 64.7449 26.6866 64.8648 26.5668L66.9024 36.2755C66.4829 36.6351 59.4111 42.3284 49.9421 42.5682Z" fill="#10213E"/>
<path d="M34.6 69.0575C15.6021 69.0575 0.200012 53.5955 0.200012 34.5976C0.200012 15.5997 15.6021 0.197632 34.6 0.197632C53.5979 0.197632 69 15.5997 69 34.5976C69 53.5955 53.5979 68.9976 34.6 69.0575ZM34.6 3.79345C17.5798 3.79345 3.79583 17.5774 3.79583 34.5976C3.79583 51.6178 17.5798 65.4018 34.6 65.4018C51.6202 65.4018 65.4042 51.6178 65.4042 34.5976C65.4042 17.5774 51.6202 3.79345 34.6 3.79345Z" fill="#10213E"/>
</svg>
