<svg width="68" height="65" viewBox="0 0 68 65" fill="none" xmlns="http://www.w3.org/2000/svg">
<path d="M60.4173 24.8918C58.2674 24.8918 56.3756 25.7911 54.9853 27.1982C49.8687 23.6153 42.9749 21.3089 35.3358 21.0623L39.3058 2.95916L51.9469 5.83129C51.9469 8.96452 54.4694 11.5175 57.5652 11.5175C60.7183 11.5175 63.2551 8.89199 63.2551 5.75876C63.2551 2.62553 60.7326 0 57.5652 0C55.358 0 53.4518 1.34903 52.5059 3.19125L38.5462 0.0580228C37.8439 -0.130551 37.156 0.377148 36.9697 1.08793L32.6127 21.0478C25.0309 21.3669 18.2087 23.6733 13.0778 27.2562C11.6876 25.7911 9.72404 24.8918 7.5742 24.8918C-0.394542 24.8918 -3.00302 35.713 4.29211 39.412C4.03413 40.5579 3.91947 41.7764 3.91947 42.9949C3.91947 55.1506 17.4491 65 34.0602 65C50.743 65 64.2727 55.1506 64.2727 42.9949C64.2727 41.7764 64.1437 40.4999 63.8283 39.3539C70.9801 35.6405 68.343 24.8918 60.4173 24.8918ZM15.8582 40.1808C15.8582 36.9895 18.3807 34.422 21.5482 34.422C24.6439 34.422 27.1664 36.975 27.1664 40.1808C27.1664 43.314 24.6439 45.867 21.5482 45.867C18.3951 45.8815 15.8582 43.314 15.8582 40.1808ZM46.5723 53.7436C41.3554 59.0237 26.6361 59.0237 21.4192 53.7436C20.8459 53.2359 20.8459 52.3365 21.4192 51.7563C21.9208 51.2486 22.8094 51.2486 23.311 51.7563C27.2954 55.8904 40.5098 55.963 44.6661 51.7563C45.1677 51.2486 46.0563 51.2486 46.558 51.7563C47.1456 52.3365 47.1456 53.2359 46.5723 53.7436ZM46.4576 45.8815C43.3619 45.8815 40.8394 43.3285 40.8394 40.1953C40.8394 37.004 43.3619 34.4365 46.4576 34.4365C49.6107 34.4365 52.1475 36.9895 52.1475 40.1953C52.1332 43.314 49.6107 45.8815 46.4576 45.8815Z" fill="#FCA311"/>
</svg>
