<svg width="37" height="38" viewBox="0 0 37 38" fill="none" xmlns="http://www.w3.org/2000/svg">
<path d="M30 19C30 25.6274 24.8513 31 18.5 31C12.1487 31 7 25.6274 7 19C7 12.3726 12.1487 7 18.5 7C24.8513 7 30 12.3726 30 19Z" fill="#FCA311"/>
<path fill-rule="evenodd" clip-rule="evenodd" d="M37 19C37 29.2097 28.9951 38 18.5 38C8.00495 38 0 29.2097 0 19C0 8.79035 8.00495 0 18.5 0C28.9951 0 37 8.79035 37 19ZM18.5 31C24.8513 31 30 25.6274 30 19C30 12.3726 24.8513 7 18.5 7C12.1487 7 7 12.3726 7 19C7 25.6274 12.1487 31 18.5 31Z" fill="#1C1B20"/>
</svg>
