<?xml version="1.0" encoding="utf-8"?>
<!-- Generator: Adobe Illustrator 23.0.1, SVG Export Plug-In . SVG Version: 6.00 Build 0)  -->
<svg version="1.1" id="Layer_1" xmlns="http://www.w3.org/2000/svg" xmlns:xlink="http://www.w3.org/1999/xlink" x="0px" y="0px"
	 viewBox="0 0 380.5 101.3" style="enable-background:new 0 0 380.5 101.3;" xml:space="preserve">
<style type="text/css">
	.st0{fill:#000248;}
	.st1{fill:#702FFF;}
</style>
<g>
	<g>
		<path class="st0" d="M0.1,90.2L7.6,74c8.1,5.6,19.8,9.9,31,9.9c13,0,18-4.2,18-10.2C56.6,56,1.9,68,1.9,33.4
			c0-15.9,13-29.3,39.5-29.3c12,0,24,2.8,32.4,8.5l-6.7,16.6c-8.8-4.9-17.6-7.4-26.1-7.4c-13,0-18,4.9-18,10.6
			c0,17.3,54.7,5.3,54.7,39.9c0,15.9-13,29.3-39.9,29.3C23.4,101.1,8.6,96.5,0.1,90.2z"/>
		<path class="st0" d="M155.7,58.1v41.3h-19.8v-8.8c-3.9,6.7-11.3,10.2-21.9,10.2c-16.9,0-26.8-9.5-26.8-21.9
			c0-12.7,8.8-21.5,31-21.5h16.6c0-9.2-5.3-14.1-16.6-14.1c-7.8,0-15.5,2.5-20.8,6.7l-7.4-14.5c7.8-5.6,19.8-8.8,31-8.8
			C143,26.4,155.7,36.6,155.7,58.1z M134.5,76.8v-7.4h-14.5c-9.9,0-12.7,3.5-12.7,8.5c0,5.3,4.6,8.8,12,8.8
			C126.1,86.3,132.4,83.1,134.5,76.8z"/>
		<path class="st0" d="M174.4-0.1h20.8v99.5h-20.8V-0.1z"/>
		<path class="st0" d="M285.1,69.4h-54.7c2.1,8.8,9.5,14.5,20.8,14.5c7.8,0,13-2.1,18-7.1l11.3,12c-6.7,7.8-16.9,11.6-29.6,11.6
			c-25,0-41.3-15.5-41.3-37s16.6-37,38.4-37c21.2,0,37.7,14.1,37.7,37.4C285.5,65.2,285.5,67.6,285.1,69.4z M230.5,57h35.6
			c-1.4-9.2-8.5-15.2-17.6-15.2C238.6,41.9,231.9,47.9,230.5,57z"/>
		<path class="st1" d="M355.3,99.4l-22.9-32.4l-22.2,32.4h-25l34.9-48L286.9,5.6h24.7l21.5,30.3l21.2-30.3h23.6l-32.8,45.5L380,99.7
			h-24.7V99.4z"/>
	</g>
	<polygon class="st1" points="362.7,50.7 380.3,26.4 380.3,75 	"/>
</g>
</svg>
