<svg width="53" height="50" viewBox="0 0 53 50" fill="none" xmlns="http://www.w3.org/2000/svg">
<path d="M34.6398 0H18.6441C16.9492 0 15.2542 0.635593 13.9831 1.90678L2.11864 13.0297C1.90678 13.2415 1.69492 13.4534 1.58898 13.6653H1.48305V13.7712C0.529661 15.0424 0 16.4195 0 18.0085V46.0805C0 48.1992 1.69492 50 3.91949 50H34.6398C36.7585 50 38.5593 48.1992 38.5593 46.0805V3.91949C38.5593 1.80085 36.7585 0 34.6398 0ZM15.7839 3.81356C15.9958 3.60169 16.2076 3.38983 16.5254 3.2839V12.1822C16.5254 13.0297 15.8898 13.6653 15.0424 13.6653H5.29661L15.7839 3.81356ZM35.8051 46.0805C35.8051 46.7161 35.2754 47.3517 34.5339 47.3517H3.81356C3.17797 47.3517 2.54237 46.822 2.54237 46.0805V18.0085C2.54237 17.4788 2.64831 16.9492 2.86017 16.4195H14.9364C17.267 16.4195 19.0678 14.5127 19.0678 12.2881V2.75424H34.428C35.0636 2.75424 35.6992 3.2839 35.6992 4.02542V46.0805H35.8051Z" fill="white"/>
<path d="M36.0169 38.9831C42.745 38.9831 48.1991 33.5289 48.1991 26.8009C48.1991 20.0728 42.745 14.6187 36.0169 14.6187C29.2889 14.6187 23.8347 20.0728 23.8347 26.8009C23.8347 33.5289 29.2889 38.9831 36.0169 38.9831Z" fill="#10213E"/>
<path d="M51.9068 40.572L45.5509 34.216C49.6822 28.9194 48.7288 21.1864 43.3263 17.055C37.9237 12.9237 30.2966 13.8771 26.1653 19.2796C22.0339 24.6822 22.9873 32.3093 28.3898 36.4406C32.7331 39.8305 38.8771 39.8305 43.3263 36.4406L49.6822 42.7966C50.3178 43.4322 51.2712 43.4322 51.9068 42.7966C52.5424 42.161 52.5424 41.2076 51.9068 40.572ZM36.017 17.7966C40.2542 17.7966 43.8559 20.7627 44.8093 24.894C41.6314 24.0466 38.2415 24.7881 35.6992 26.6949C32.3093 29.3432 28.9195 27.2245 27.1187 25.6355C27.6483 21.0805 31.4619 17.7966 36.017 17.7966ZM27.1187 28.7076C28.2839 29.2372 29.5551 29.4491 30.8263 29.555C32.5212 29.555 34.428 27.9661 36.3348 26.483C39.3009 24.1525 42.9026 26.3771 45.0212 27.9661C44.3856 32.9449 39.9365 36.4406 34.9576 35.911C31.0381 35.2754 27.9661 32.5211 27.1187 28.7076Z" fill="white"/>
</svg>
