<?xml version="1.0" encoding="utf-8"?>
<!-- Generator: Adobe Illustrator 23.0.1, SVG Export Plug-In . SVG Version: 6.00 Build 0)  -->
<svg version="1.1" id="Layer_1" xmlns="http://www.w3.org/2000/svg" xmlns:xlink="http://www.w3.org/1999/xlink" x="0px" y="0px"
	 viewBox="0 0 294 68" style="enable-background:new 0 0 294 68;" xml:space="preserve">
<style type="text/css">
	.st0{fill:#702FFF;}
	.st1{fill:#000248;}
</style>
<path class="st0" d="M3.3,67.4c0,0-0.1,0-0.2-0.1c-1.1-0.2-1.6-1.4-0.9-2.2c0.6-0.9,1.2-1.7,1.8-2.6c3.6-5.1,7.3-10.2,11-15.2
	c2.8-3.9,5.6-7.8,8.5-11.8c0.1-0.1,0.1-0.2,0.3-0.4c-0.2,0-0.3,0-0.4,0c-3.4,0-6.8,0-10.2,0c-0.9,0-1.4-0.5-1.5-1.3
	c-0.1-0.5,0.2-1,0.6-1.3c1.7-1.2,3.4-2.5,5.1-3.7c4.2-3.1,8.4-6.1,12.6-9.2c4.3-3.1,8.6-6.3,13-9.4c4.6-3.3,9.1-6.6,13.7-9.9
	c0.8-0.6,2-0.3,2.3,0.7c0.1,0.4,0,0.9-0.2,1.3c-0.8,1.1-1.5,2.1-2.3,3.2c-4.2,5.9-8.4,11.7-12.7,17.6c-2.1,2.9-4.2,5.8-6.3,8.8
	c-0.1,0.1-0.1,0.2-0.2,0.4c0.2,0,0.2,0,0.3,0c3.4,0,6.9,0,10.3,0c0.6,0,1.2,0.4,1.4,1c0.2,0.6,0,1.2-0.5,1.6
	c-0.6,0.4-1.1,0.8-1.7,1.2c-3.4,2.4-6.7,4.9-10.1,7.3c-4,2.9-8.1,5.9-12.1,8.8C19,56.4,13.2,60.5,7.5,64.7c-1,0.7-2,1.5-3,2.2
	c-0.3,0.2-0.6,0.4-1,0.4C3.4,67.4,3.4,67.4,3.3,67.4z M43.3,35.2C43.3,35.1,43.3,35.1,43.3,35.2c-0.1-0.1-0.2-0.1-0.3-0.1
	c-2.9,0-5.7,0-8.6,0c-0.6,0-1.1-0.2-1.4-0.8c-0.3-0.5-0.2-1.1,0.2-1.5c3-4.1,5.9-8.3,8.9-12.4c2.9-4.1,5.8-8.1,8.8-12.2
	c0-0.1,0.1-0.1,0.1-0.2c0,0,0,0,0,0C39.8,16,28.7,24.1,17.6,32.2c0,0,0,0,0,0.1c0.1,0,0.2,0,0.3,0c2.9,0,5.7,0,8.6,0
	c0.6,0,1.1,0.2,1.4,0.8c0.3,0.5,0.2,1.1-0.2,1.5c-3.3,4.6-6.7,9.3-10,13.9c-2.6,3.6-5.1,7.1-7.7,10.7c0,0.1-0.1,0.1-0.1,0.2
	c0,0,0,0,0,0C21.1,51.3,32.2,43.3,43.3,35.2z"/>
<path class="st1" d="M0,33.7C0.1,25.3,3.1,18,9.1,12c3.7-3.7,8-6.2,13-7.6c2.1-0.6,4.2-1,6.4-1.1c3.9-0.2,7.8,0.2,11.5,1.5
	c0.6,0.2,1.3,0.4,1.9,0.7c0.6,0.2,0.9,0.8,0.9,1.4c-0.1,0.6-0.5,1.1-1.1,1.3c-0.4,0.1-0.7,0.1-1-0.1C39,7.5,37.3,7,35.5,6.7
	c-2.4-0.4-4.9-0.6-7.3-0.4c-4.1,0.3-7.9,1.5-11.4,3.5C10.4,13.5,6.2,18.9,4,26c-1,3.2-1.3,6.6-1,9.9c0.4,5.4,2.3,10.2,5.6,14.4
	c0.4,0.5,0.5,1,0.3,1.6c-0.2,0.5-0.6,0.8-1.2,0.9s-1-0.1-1.4-0.6c-0.9-1.2-1.8-2.4-2.5-3.8c-1.8-3.2-3-6.7-3.5-10.3
	C0.1,36.7,0,35.2,0,33.7z"/>
<path class="st1" d="M60.8,32.9c0,7.6-2.2,14.1-6.7,19.8c-3.6,4.4-8,7.6-13.4,9.6c-2.5,0.9-5,1.5-7.7,1.7c-4.8,0.4-9.5-0.3-14-2.1
	c-0.6-0.3-1-0.8-1-1.4c0-0.6,0.4-1.2,1.1-1.3c0.4-0.1,0.7,0,1.1,0.1c1.4,0.6,2.8,1,4.2,1.3c2.7,0.6,5.4,0.8,8.2,0.6
	c5.7-0.5,10.8-2.5,15.2-6.2c5-4.1,8.2-9.4,9.5-15.8c0.6-2.9,0.7-5.8,0.4-8.6c-0.6-5-2.4-9.5-5.4-13.5c-0.3-0.4-0.5-0.8-0.4-1.2
	c0.1-0.6,0.5-1,1.1-1.2c0.6-0.2,1.2,0,1.5,0.5c0.7,1,1.5,2,2.1,3.1c2,3.2,3.2,6.7,3.8,10.4c0.1,0.5,0.2,0.9,0.2,1.4
	C60.7,31.1,60.8,32.2,60.8,32.9z"/>
<path class="st1" d="M82.7,22c-5.6,0-9.3,2.7-9.3,7.1c0,8.3,12.3,5.8,12.3,10c0,1.3-1.2,2-3,2c-2.4,0-6-1.4-8.4-3.5L72,42.2
	c2.8,2.3,6.7,3.8,10.6,3.8c5.2,0,9.3-2.5,9.3-7.2c0-8.5-12.3-6.2-12.3-10.2c0-1.1,1-1.7,2.6-1.7c1.9,0,5,1,7.4,2.4l2.2-4.7
	C89.4,23,86,22,82.7,22z"/>
<path class="st1" d="M116,22.3h-5.9v13.6c0,3.2-1.9,5.1-4.7,5.1c-2.8,0-4.8-1.9-4.8-5.1V22.3h-5.9v13.6c0,6.2,4.2,10.1,10.7,10.1
	c6.5,0,10.6-3.9,10.6-10.1V22.3z"/>
<path class="st1" d="M120.2,22.3v23.5h5.9v-6.6h4.2c5.9,0,9.3-3.2,9.3-8.7c0-5.2-3.4-8.2-9.3-8.2H120.2z M126.1,27h3.9
	c2.6,0,4.1,1.2,4.1,3.7c0,2.5-1.5,3.8-4.1,3.8h-3.9V27z"/>
<path class="st1" d="M160.9,27v-4.7h-18.2v23.5h18.5V41h-12.6v-4.7h11.1v-4.7h-11.1V27H160.9z"/>
<path class="st1" d="M179.1,45.7h6.7l-4.9-7.7c2.7-1.4,4.2-4,4.2-7.5c0-5.2-3.5-8.2-9.6-8.2h-10.4v23.5h5.9v-6.6h4.5h0.2L179.1,45.7
	z M171,34.4V27h4.5c2.6,0,4,1.2,4,3.7c0,2.5-1.5,3.8-4,3.8H171z"/>
<path class="st1" d="M198,22c-5.6,0-9.3,2.7-9.3,7.1c0,8.3,12.3,5.8,12.3,10c0,1.3-1.2,2-3,2c-2.4,0-6-1.4-8.4-3.5l-2.3,4.6
	c2.8,2.3,6.7,3.8,10.6,3.8c5.2,0,9.3-2.5,9.3-7.2c0-8.5-12.3-6.2-12.3-10.2c0-1.1,1-1.7,2.6-1.7c1.9,0,5,1,7.4,2.4l2.2-4.7
	C204.8,23,201.4,22,198,22z"/>
<path class="st1" d="M221.4,22.1c-7.2,0-12.5,5.1-12.5,11.9c0,6.9,5.4,12,12.5,12c7.2,0,12.6-5.2,12.6-12
	C234,27.2,228.6,22.1,221.4,22.1z M221.5,27.1c3.6,0,6.4,3,6.4,6.9s-2.9,7-6.4,7c-3.5,0-6.6-3.1-6.6-7S217.9,27.1,221.5,27.1z"/>
<path class="st1" d="M258.5,45.7V22.3H253v14.5l-10.7-14.5h-5.2v23.5h5.5V31.3l10.7,14.4H258.5z"/>
<path class="st1" d="M269.1,45.7V22.3h-5.9v23.5H269.1z"/>
<path class="st1" d="M284.6,22.1c-7.1,0-12.4,5.1-12.4,11.9c0,6.9,5.2,12.1,12.2,12.1c3.4,0,7.1-1.7,9.6-4.3l-3.4-3.7
	c-1.6,1.7-3.9,2.7-5.8,2.7c-3.7,0-6.5-3-6.5-6.9c0-3.9,2.8-6.8,6.5-6.8c2.1,0,4.3,1.2,5.8,3.1L294,26
	C291.6,23.6,288.1,22.1,284.6,22.1z"/>
</svg>
