<svg width="30" height="38" viewBox="0 0 30 38" fill="none" xmlns="http://www.w3.org/2000/svg">
<path d="M21.4665 24.7706C19.4362 24.7706 17.0785 22.8058 14.7862 20.972C9.6123 16.8459 2.40807 24.3776 2.34258 24.3776L1.75314 19.8586C2.08061 19.6621 9.74329 16.5839 15.6377 21.2339C21.663 26.0149 27.8848 18.2213 27.9503 18.1558L28.7362 22.2163C26.575 23.8537 24.0862 24.7051 21.4665 24.7706Z" fill="white"/>
<path d="M26.313 0.800049H14.4588C13.1489 0.800049 11.9701 1.32399 10.9877 2.1754L2.14611 10.493C2.01512 10.624 1.81865 10.8205 1.68766 11.017V11.0824C0.967238 11.9339 0.57428 13.0472 0.57428 14.1606V35.1184C0.57428 36.7557 1.88414 38 3.52146 38H26.3785C28.0158 38 29.3257 36.6902 29.3257 35.1184V3.68174C29.2602 2.10991 27.9503 0.800049 26.313 0.800049ZM12.363 3.61625C12.5595 3.48526 12.6905 3.35427 12.887 3.22329V9.90357C12.887 10.493 12.363 11.017 11.7736 11.017H4.56935L12.363 3.61625ZM27.2299 35.1184C27.2299 35.6423 26.837 36.0353 26.313 36.0353H3.52146C2.99752 36.0353 2.60456 35.6423 2.60456 35.1184V14.1606C2.60456 13.7677 2.67005 13.3747 2.86653 12.9817H11.8391C13.5419 12.9817 14.9172 11.6064 14.9172 9.90357V2.76484H26.3785C26.9025 2.76484 27.2954 3.1578 27.2954 3.68174V35.1184H27.2299Z" fill="white"/>
<path d="M7.71301 30.9922C7.71301 31.0577 7.71301 31.1232 7.71301 31.1887C7.71301 31.2542 7.64752 31.3197 7.64752 31.3852C7.58203 31.4507 7.58203 31.5162 7.51654 31.5162C7.45104 31.5816 7.38555 31.5816 7.25456 31.5816C7.32006 31.5816 7.38555 31.6471 7.51654 31.6471C7.58203 31.6471 7.64752 31.7126 7.71301 31.7781C7.77851 31.8436 7.77851 31.9091 7.844 31.9746C7.844 32.0401 7.90949 32.1711 7.90949 32.2366C7.90949 32.3676 7.90949 32.4985 7.844 32.564C7.77851 32.6295 7.71301 32.7605 7.58203 32.826C7.38555 32.8915 7.25456 32.8915 7.12358 32.957C6.99259 32.957 6.86161 33.0225 6.73062 33.0225H6.33766H6.14118H5.87921V30.4683H6.07569H6.27217H6.46865H6.73062C6.86161 30.4683 6.99259 30.4683 7.12358 30.4683C7.25456 30.4683 7.32006 30.5338 7.45104 30.5992C7.51654 30.6647 7.64752 30.7302 7.71301 30.7957C7.71301 30.7957 7.71301 30.8612 7.71301 30.9922ZM6.53414 31.4507H6.66513H6.79611C6.86161 31.4507 6.99259 31.3852 7.05808 31.3197C7.12358 31.2542 7.18907 31.1887 7.18907 31.1232C7.18907 31.0577 7.18907 30.9922 7.12358 30.9922C7.12358 30.9267 7.05808 30.9267 6.99259 30.8612C6.9271 30.8612 6.9271 30.7957 6.86161 30.7957C6.79611 30.7957 6.73062 30.7957 6.66513 30.7957H6.53414H6.40315V31.4507H6.53414ZM6.73062 32.564C6.79611 32.564 6.86161 32.564 6.9271 32.564C6.99259 32.564 7.05808 32.4985 7.05808 32.4985C7.12358 32.4985 7.12358 32.4331 7.18907 32.3676C7.18907 32.3021 7.25456 32.2366 7.25456 32.1711C7.25456 32.1056 7.25456 32.0401 7.18907 31.9746C7.18907 31.9091 7.12358 31.9091 7.05808 31.8436C6.99259 31.8436 6.9271 31.7781 6.86161 31.7781C6.79611 31.7781 6.73062 31.7781 6.66513 31.7781H6.40315V32.4985L6.73062 32.564Z" fill="white"/>
<path d="M8.62992 32.1056H9.02287V32.4986C9.08837 32.4986 9.15386 32.5641 9.21935 32.5641C9.28485 32.5641 9.35034 32.5641 9.48132 32.5641C9.61231 32.5641 9.7433 32.5641 9.80879 32.4986C9.87428 32.4331 9.93977 32.3676 9.93977 32.3021C9.93977 32.2366 9.87428 32.1711 9.87428 32.1056C9.80879 32.0402 9.7433 31.9747 9.61231 31.9747L9.28485 31.8437C9.15386 31.7782 9.08837 31.7782 8.95738 31.7127C8.89189 31.6472 8.7609 31.5817 8.69541 31.5162C8.62992 31.3852 8.56442 31.3197 8.62992 31.1887C8.62992 31.0578 8.62992 30.9923 8.69541 30.8613C8.7609 30.7958 8.82639 30.6648 8.89189 30.5993C8.95738 30.5338 9.08837 30.4683 9.21935 30.4683C9.35034 30.4028 9.48132 30.4028 9.61231 30.4028C9.7433 30.4028 9.93977 30.4028 10.0708 30.4683C10.2017 30.4683 10.3327 30.5338 10.4637 30.5993V31.3852H10.0053V30.9923H9.7433C9.6778 30.9923 9.61231 30.9923 9.54682 30.9923C9.41583 30.9923 9.35034 30.9923 9.21935 31.0578C9.15386 31.1233 9.08837 31.1887 9.08837 31.2542C9.08837 31.3197 9.15386 31.3852 9.15386 31.4507C9.21935 31.5162 9.28485 31.5817 9.41583 31.5817L9.7433 31.7127C9.87428 31.7782 9.93977 31.7782 10.0708 31.8437C10.1363 31.9092 10.2672 31.9747 10.3327 32.0402C10.3982 32.1711 10.4637 32.2366 10.3982 32.3676C10.3982 32.4986 10.3982 32.6296 10.3327 32.6951C10.2672 32.8261 10.2017 32.8916 10.1363 32.9571C10.0053 33.0225 9.93978 33.088 9.80879 33.088C9.6778 33.1535 9.54682 33.1535 9.41583 33.1535C9.35034 33.1535 9.21935 33.1535 9.15386 33.1535L8.89189 33.088C8.82639 33.088 8.7609 33.0226 8.69541 33.0226L8.56442 32.8916L8.62992 32.1056Z" fill="white"/>
<path d="M12.887 32.1057H13.3454V32.8261C13.2799 32.8916 13.1489 32.9571 13.0179 32.9571C12.887 32.9571 12.756 33.0226 12.625 33.0226C12.4285 33.0226 12.2975 33.0226 12.101 32.9571C11.9701 32.8916 11.7736 32.8261 11.7081 32.6952C11.5771 32.5642 11.5116 32.4332 11.4461 32.3022C11.3806 32.1057 11.3151 31.9092 11.3151 31.6473C11.3151 31.4508 11.3151 31.1888 11.4461 30.9923C11.5116 30.8613 11.6426 30.6649 11.7736 30.5994C11.9046 30.4684 12.0355 30.4029 12.1665 30.4029C12.2975 30.3374 12.494 30.3374 12.625 30.3374C12.756 30.3374 12.887 30.3374 13.0179 30.3374C13.0834 30.3374 13.2144 30.4029 13.2799 30.4029V31.1888H12.8215V30.7959C12.756 30.7959 12.625 30.7959 12.5595 30.7959C12.4285 30.7959 12.363 30.7959 12.2975 30.8613C12.232 30.9268 12.101 30.9268 12.101 30.9923C12.0355 31.0578 11.9701 31.1888 11.9701 31.2543C11.9046 31.3853 11.9046 31.5163 11.9046 31.6473C11.9046 31.7782 11.9046 31.9092 11.9701 31.9747C11.9701 32.1057 12.0355 32.1712 12.101 32.2367C12.1665 32.3022 12.232 32.3677 12.363 32.4332C12.494 32.4987 12.5595 32.4987 12.6905 32.4987C12.756 32.4987 12.887 32.4987 12.9524 32.4987L12.887 32.1057Z" fill="white"/>
<path d="M14.1313 32.1056H14.5898V32.4986C14.6553 32.4986 14.7208 32.5641 14.7863 32.5641C14.8517 32.5641 14.9172 32.5641 14.9827 32.5641C15.1137 32.5641 15.2447 32.5641 15.3102 32.4986C15.3757 32.4331 15.4412 32.3676 15.4412 32.3021C15.4412 32.2366 15.3757 32.1711 15.3102 32.1056C15.2447 32.0402 15.1792 31.9747 15.0482 31.9747L14.7208 31.8437C14.5898 31.7782 14.5243 31.7782 14.3933 31.7127C14.3278 31.6472 14.1968 31.5817 14.1313 31.5162C14.0658 31.3852 14.0003 31.3197 14.0003 31.1887C14.0003 31.0578 14.0003 30.9923 14.0658 30.8613C14.1313 30.7958 14.1968 30.6648 14.2623 30.5993C14.3278 30.5338 14.4588 30.4683 14.5898 30.4683C14.7208 30.4028 14.8517 30.4028 14.9827 30.4028C15.1137 30.4028 15.3102 30.4028 15.4412 30.4683C15.5722 30.4683 15.7032 30.5338 15.8341 30.5993V31.3852H15.3757V30.9923H15.1792C15.1137 30.9923 15.0482 30.9923 14.9827 30.9923C14.8517 30.9923 14.7863 30.9923 14.6553 31.0578C14.5898 31.1233 14.5243 31.1887 14.5243 31.2542C14.5243 31.3197 14.5898 31.3852 14.6553 31.4507C14.7208 31.5162 14.7863 31.5817 14.9172 31.5817L15.2447 31.7127C15.3757 31.7782 15.4412 31.7782 15.5722 31.8437C15.6377 31.9092 15.7686 31.9747 15.8341 32.0402C15.8996 32.1711 15.9651 32.2366 15.9651 32.3676C15.9651 32.4986 15.9651 32.6296 15.8996 32.6951C15.8341 32.8261 15.7686 32.8916 15.7032 32.9571C15.5722 33.0225 15.5067 33.088 15.3757 33.088C15.2447 33.1535 15.1137 33.1535 14.9827 33.1535C14.9172 33.1535 14.7863 33.1535 14.7208 33.1535L14.5243 33.088C14.4588 33.088 14.3933 33.0226 14.3278 33.0226L14.1313 32.8916V32.1056Z" fill="white"/>
<path d="M18.3884 32.1057H18.8468V32.8261C18.7813 32.8916 18.6503 32.9571 18.5193 32.9571C18.3884 32.9571 18.2574 33.0226 18.1264 33.0226C17.9299 33.0226 17.7989 33.0226 17.6024 32.9571C17.4715 32.8916 17.275 32.8261 17.2095 32.6952C17.0785 32.5642 17.013 32.4332 16.9475 32.3022C16.882 32.1057 16.8165 31.9092 16.8165 31.6473C16.8165 31.4508 16.882 31.1888 16.9475 30.9923C17.013 30.8613 17.144 30.6649 17.275 30.5994C17.406 30.4684 17.537 30.4029 17.6679 30.4029C17.7989 30.3374 17.9954 30.3374 18.1264 30.3374C18.2574 30.3374 18.3884 30.3374 18.5193 30.3374C18.5848 30.3374 18.7158 30.4029 18.7813 30.4029V31.1888H18.3229V30.7959C18.2574 30.7959 18.1264 30.7959 18.0609 30.7959C17.9299 30.7959 17.8644 30.7959 17.7989 30.8613C17.7334 30.9268 17.6024 30.9268 17.6024 30.9923C17.537 31.0578 17.4715 31.1888 17.4715 31.2543C17.406 31.3853 17.406 31.5163 17.406 31.6473C17.406 31.7782 17.406 31.9092 17.4715 31.9747C17.4715 32.1057 17.537 32.1712 17.6024 32.2367C17.6679 32.3022 17.7334 32.3677 17.8644 32.4332C17.9954 32.4987 18.0609 32.4987 18.1919 32.4987C18.2574 32.4987 18.3884 32.4987 18.4539 32.4987V32.1057H18.3884Z" fill="white"/>
<path d="M20.9426 32.3676H20.1567L19.9602 32.9571H19.4362L20.3532 30.4028H20.8771L21.794 32.9571H21.2046L20.9426 32.3676ZM20.2222 31.9747H20.8116L20.5496 31.1233L20.2222 31.9747Z" fill="white"/>
<path d="M22.8419 31.4507V31.7781V33.0225H22.3179V30.4683H22.8419L23.8243 32.0401V31.7126V30.4683H24.3482V33.0225H23.8898L22.8419 31.4507Z" fill="white"/>
</svg>
