<svg width="58" height="49" viewBox="0 0 58 49" fill="none" xmlns="http://www.w3.org/2000/svg">
<path d="M52.0414 12.2088C52.0754 12.7391 52.0754 13.2811 52.0754 13.8114C52.0754 30.1566 40.1129 49 18.2496 49C11.5094 49 5.25625 46.9731 0 43.4495C0.951562 43.5673 1.88047 43.6027 2.86602 43.6027C8.42812 43.6027 13.5371 41.6465 17.6266 38.3232C12.4043 38.2054 8.02031 34.6465 6.51367 29.7441C7.25 29.862 7.98633 29.9327 8.75664 29.9327C9.82148 29.9327 10.8863 29.7795 11.8832 29.5084C6.43438 28.3653 2.35625 23.3805 2.35625 17.3704V17.2172C3.94219 18.1364 5.77734 18.7138 7.72578 18.7845C4.51992 16.569 2.42422 12.7744 2.42422 8.48485C2.42422 6.18687 3.01328 4.07744 4.04414 2.23906C9.90078 9.75758 18.6914 14.6599 28.5582 15.202C28.377 14.2828 28.2637 13.3283 28.2637 12.3737C28.2637 5.5505 33.5652 0 40.1469 0C43.568 0 46.6605 1.49663 48.8355 3.90067C51.5203 3.37037 54.1031 2.33333 56.3801 0.919192C55.4965 3.79461 53.616 6.19865 51.1578 7.73064C53.548 7.4596 55.8703 6.77609 58 5.82155C56.3801 8.27273 54.3523 10.4529 52.0414 12.2088Z" fill="#FCA311"/>
</svg>
