<svg width="68" height="68" viewBox="0 0 68 68" fill="none" xmlns="http://www.w3.org/2000/svg">
<path d="M42.2528 22.3378C44.5576 17.6693 44.3803 12.1144 41.721 7.97778C40.2436 10.2234 38.589 12.4099 36.8752 14.4782C35.6342 16.0147 33.7432 16.9011 31.7931 16.9602C29.8429 17.0193 27.9519 17.1966 25.5881 17.3148C28.3656 21.9242 32.0294 24.288 36.8752 24.5244C38.5299 31.6748 34.1569 39.5345 27.1246 42.2528C26.0018 41.1891 26.2381 39.4163 24.9971 38.3526C21.8651 39.6526 20.7423 42.2528 20.5059 45.4439L16.2511 47.2168L16.842 47.2759C24.4062 47.8668 25.9427 51.1761 33.3295 51.6489C38.3526 52.0035 41.4846 50.7034 44.9712 49.817C49.6397 40.1254 46.2122 31.2021 42.2528 22.3378ZM31.6158 42.8438C34.3932 41.0118 36.8161 39.3572 38.2935 36.6979C39.7709 34.0386 39.83 31.2612 39.8891 28.011C44.0257 36.0479 40.1254 43.0801 31.6158 42.8438Z" fill="#10213E"/>
<path d="M65.1817 59.1538C61.9905 57.2628 58.4448 56.14 54.7219 55.7854C50.5852 55.4309 47.8078 56.2582 44.9121 57.0855C42.0165 57.9129 39.0617 58.7402 34.8069 58.5038C31.9112 58.3265 29.0747 57.5583 26.4154 56.2582C23.8743 55.0172 21.156 54.3081 18.3194 54.0717C13.4736 53.658 8.33238 54.6035 3.13203 56.79L2.65927 55.7263C8.03691 53.4807 13.3554 52.5352 18.3785 52.9489C21.3333 53.1853 24.1698 53.9535 26.8291 55.1945C29.3111 56.4355 32.0294 57.1446 34.8069 57.3219C38.8844 57.6174 41.721 56.79 44.4985 55.9627C47.3941 55.1354 50.4079 54.249 54.7219 54.6626C58.563 55.0172 62.3451 56.1991 65.6544 58.1492L65.1817 59.1538Z" fill="#10213E"/>
<path d="M65.2998 52.5354C62.1087 50.6444 58.563 49.5216 54.84 49.167C50.7034 48.8125 47.9259 49.6398 45.0303 50.4671C42.1346 51.2944 39.1799 52.1218 34.9251 51.8263C32.0294 51.649 29.1929 50.8808 26.5927 49.6398C24.0516 48.4579 21.3332 47.6897 18.4967 47.4533C13.6509 47.0396 8.50966 47.9851 3.30931 50.1716L2.83655 49.1079C8.21418 46.8623 13.5327 45.9168 18.5558 46.3305C21.5105 46.5669 24.3471 47.3351 27.0064 48.5761C29.4883 49.758 32.2067 50.4671 34.9842 50.7035C39.0617 50.9399 41.8983 50.1716 44.6757 49.3443C47.5714 48.517 50.5852 47.6306 54.8991 48.0442C58.7403 48.3988 62.5224 49.5807 65.8317 51.5899L65.2998 52.5354Z" fill="#10213E"/>
<path d="M10.9488 11.4345L8.24927 14.5688L56.8762 56.4508L59.5758 53.3165L10.9488 11.4345Z" fill="#10213E"/>
<path d="M33.9205 67.9C15.1874 67.9 0 52.6535 0 33.9205C0 15.1874 15.1874 0 33.9205 0C52.6535 0 67.8409 15.1874 67.8409 33.9205C67.8409 52.6535 52.6535 67.8409 33.9205 67.9ZM33.9205 3.54569C17.1375 3.54569 3.54569 17.1375 3.54569 33.9205C3.54569 50.7034 17.1375 64.2952 33.9205 64.2952C50.7034 64.2952 64.2952 50.7034 64.2952 33.9205C64.2952 17.1375 50.7034 3.54569 33.9205 3.54569Z" fill="#10213E"/>
</svg>
